<mxfile host="Electron" modified="2023-04-13T00:15:05.491Z" agent="Mozilla/5.0 (Macintosh; Intel Mac OS X 10_15_7) AppleWebKit/537.36 (KHTML, like Gecko) draw.io/21.1.2 Chrome/106.0.5249.199 Electron/21.4.3 Safari/537.36" etag="z_oC7BApiX0z__1qpwlW" version="21.1.2" type="device">
  <diagram name="Page-1" id="RLG3R4-jo-FwhDtW6HOU">
    <mxGraphModel dx="1434" dy="1632" grid="1" gridSize="10" guides="1" tooltips="1" connect="1" arrows="1" fold="1" page="1" pageScale="1" pageWidth="1333" pageHeight="833" math="0" shadow="0">
      <root>
        <mxCell id="0" />
        <mxCell id="1" parent="0" />
        <mxCell id="oUJDmEPSPY2SnK1KJTdK-1" value="" style="whiteSpace=wrap;html=1;aspect=fixed;strokeColor=none;container=0;fillColor=#e5e9f0;" vertex="1" parent="1">
          <mxGeometry x="603" y="-780" width="128" height="128" as="geometry" />
        </mxCell>
        <mxCell id="02cAsKpuMiKQ4Kkh4DWO-3" value="" style="shape=image;verticalLabelPosition=bottom;labelBackgroundColor=default;verticalAlign=top;aspect=fixed;imageAspect=0;image=data:image/png,iVBORw0KGgoAAAANSUhEUgAAAgAAAAIAEAYAAACk6Ai5AAAABGdBTUEAALGPC/xhBQAAACBjSFJNAAB6JgAAgIQAAPoAAACA6AAAdTAAAOpgAAA6mAAAF3CculE8AAAABmJLR0QAAAAAAAD5Q7t/AAAACXBIWXMAAABgAAAAYADwa0LPAACAAElEQVR42uz9d5zT15U//h91aXrvTIGBGTqmY2OKaW6495o4xZ94s9lk403iJE6cno3TnWRd44I7uBvbuGNM770NZYAZpvcmaaT5/XF+5ysYg5ki6d639Ho+Hvs4O449HA0gve+5555rIgAAAAiztDSOmZmnx+xsjhkZp38t/7v8c6uVY1wcR5uNo8vF0ek8/Z/Lv2c2c0xMPHNeTU0ce3pO/+duN8e2No7NzRxbW0//5/J1bS3HujqONTUcq6tP/99PnOBYWcnR6w3bbwEAAEAUMqlOAAAAwHgcDo7Dh3MsKfnymJfHMT2do92u+hXoxefjePIkx/Ly0+ORIxwPHOC4f//pXzc2qn4FAAAARoACAAAAwP+3IJ8wgeN553EcMYLjyJGnf11YyNFiUZ05EAU6Cvbs4bh9O8cdOzhu28Zx1y6O0tEAAAAQXVAAAACAKFBUxHH6dI7TpnGcOpXjxIkcZWcfIlN3N8e9ezmuX89x3brTo/zvfr/qjAEAAIIJBQAAADAwWbCff/7pURb4EuXsPEBftLRwlALBp5+eHjds4CgFBQAAAGNAAQAAAAxAWu8XLTo9zpnDMTZWdYYQTWTo4eefc/zkE44rVnCUIwgAAAB6QQEAAAA0IFPp583juHAhR1noy5l7ACOQWw3efZfje+9x/PBDjnLbAgAAAAAAQMSSafjf+x7HVas4yvVvcv0cImIkRo+Ho3QK/L//x1GuewQAAAAAADCcrCyO3/42R1noy3VvqhdiiIg6Rfl7sXo1x//+b465uQQAAAAAAKCH5GSOd9zB8a23OGJHHxExeIUBmTXwX//FMT2dAAAAAAAAQkOm7d96K0c524yFPiJi+KPbzfHVVzlefjlHi4UAAAAAAAD6Z/hwjr//PceaGo6qFz6IiIhnjzJ88G9/4zhmDAEAAAAAADC7neP113P86COOfj9H1QsaRETEgUf5eyy3D1xxBUezmQAAAAAAINLJULEf/pDj8eMcVS9UEBERwxcPHeIo7wMyywMAAAAAAAxs1iyOb7/NEVP4ERERe8fmZo5ydKC4mAAAAAAAQHfz53OUqeGqFxaIiIjGi1Io/OADjosXczSZCAAAAAAAws1q5ShT+Xfs4Kh64YCIiBi5Ud5nZGYIZgkAABgNKrkAAIbgdHK86y6O997LsahIdWbQP1arxWKxECUlxcfHxxOlpiYkJCQEvk5O5piSwv88MTEuLi4u8O/FxrpcLlcgirg4/lr2aF0uh8PhILJY+NdzOGw2m43IZrNapXxEROTxdHd3dxN5PF6v10vk9fLXbrfH4/EQ+Xx+v99P1NHhdvPlcz09PT1EbW2dnZ2dRF1d/M/r6pqbm5uJmpra2traiBoaWlpaWogaGzk2NLS2trYG/nlzM/973d0+n+w3g9Hs3MnxF7/gKNcSSsEAAAB0gwIAAICWYmI4fvvbHP/7vzlmZqrODJjFYjabzUSZmSkpKSlEQ4ZkZmZmEg0ZkpGRkUGUl8dRvs7JSU9PTydKSuIFfbTr6eFCghQMamoaGhoaiMrLq6urq4lOnKipqakhOn6cvz52jGNVFf97fj8XJkAn0iEgBYHXXuOIggAAgC5QAAAA0ILsyX7taxx/9jOOOTmqM4s2srM+cmRBQUEBUUkJx8LC7Ozs7MCCPjeXF/Syow/hIR0DgQLB6YWCAweOHz9+nGjfvvLy8vJApwGosG0bRykIvPEGRxQEAABUQQEAAEAJadS+9lqOv/kNxxEjVGcWqcxm3rEvKMjKysoKLPBLSwsLCwuJSkvz8/PzAzv3JpPJhJFnxldRUVtbWxsoCOzde/To0aNEe/ZwLC+vqqqqQkdBeGzdyvGBBzi+9RZHFAQAAMIFjzYAAGF10UUcf/c7jlOnqs4oUsiCvbg4Nzc3l2jSpNLS0lKiCROGDx8+nGjECF7gy9l4ACKizk6eYbB//7Fjx44R7dlz5MiRI0SbN+/fv39/oHCAAkEoyG0l3/0ux82bVWcEABDpUAAAAAip0aM5/vznHGV6NgxUQkJsbGws0fjxxcXFxUTnnTdixIgRRFOnjho1ahRRampiYmKi6iwhUkiBYMeOsrKyMqL16/fs2bOHaMMGjvX1PPwQBkM6AJYt4yhDTo8dU50ZAECkQQEAACCo5Mz+H/7A8eabOeK6rL6SnXzZsZ82jRf2kyaVlJSUEA0fPmTIkCFo0Qe1ZIhhWdmJEydOEG3cuHfv3r2BKLMI0DkwEDK1QTql/vxnjl1dqjMDADA6PDoBAAyKDO/7j//g+MtfckxIUJ2ZUeTn8/T8Cy+cMGHCBKKLLpo0adIkopyctLS0NNXZAQxMa2tHR0cH0eefb9++fTvRhx9u2rRpU2AGgRQQoC9OnOD4k59wXLKEI36CAAD9hQIAAMCATJ7M8V//4jhliuqMdJeenpSUlEQ0ezYv9BcunDZt2rTA9XkA0aCmprGxsZFozZqdO3fuJPrww40bN24kOnSooqKiQnV2RrFhA0eZHbB2reqMAACMAgUAAIA+SU/n+L//y/ErX+GIJvTe5J77WbPGjx8/PhBHjRo2bNgwtO4DnMnhw1wA+Ogj7hRYuXLr1q1bierrW1paWlRnpys5XPHIIxx/9COO+IkBAJwNHsEAAM5Izux/4xscf/tbjikpqjPThSziR40qKioqIlq4cPLkyZOJpk7l6ftOp8vlchE5nU6n06k6WwBjkSMCMlPgrbdWrVq1imjz5gMHDhzAEYIzk6MC99zDUa4ZBAAAgQIAAMBpzjuP48MPc8Q1fSI2lhfy0sK/YAEv+HNzTz+rb7fzNXsOB67bAwi2iorq6upqorfeWr169Wqijz/esmXLlsDMATjVSy9x/K//4lhdrTojAADVUAAAgCgnQ/y+/32OMsTPbledmWpDh+bk5OQQzZ/PQ/kuvHDs2LFjiRwOu/30nw639LtcvONvtVqt8lMFgNCQ3f/29vb29naitWt37Nixg2j58vXr168n2r//2DFcoieamjj+8IccH3uMI3ooACD6oAAAAFFqzBiOzzzDUXb+o4+08ss1e1dffeGFF15INHx4Xl5e3pf9d7Lwj4mJiSGyWCwWi0X1qwGITn4/HwnweLq6uroCtw28996GDRs2EK1evWvXrl1EPp/P5/Opzla1Dz7gePfdHI8cUZ0RAEC4oAAAAFFClqb/8z8cH3iAY/Q1qZvNZrPZTHT++aNHjx5NdNVVM2fOnBm4jq+v/70s/OVrANCHLPTdbi4InDxZV1dXR/TGG3x04NNPt23bto3I6+3u7u5Wna0q7e0c77+f49/+xlGGCwIARB4UAAAgwg0dyvHJJznOmqU6o3CzWnln/vzzx4wZM4bo2mtnzZo1iyg7OzU1NbXv30d2+GNieOEvrf8AoD+Px+PxeAIdAk1NbW1tbURvv71u3bp1RO+9x0cH3G6v1+tVna0qcp3grbdyRGcAAEQePLoBQISRJalM7//znznGxqrOLFzkjP5FF5133nnnEV1xxQUXXHABUWpqQkJCQv+/n8XCZ/oDC38AMCq/3+/3+wOdAd3d3AHQ0sKzBFas2Lhx40ai5cu5MNDRwf9edGlu5vitb3F84QXVGQEABAsKAAAQIfLzOT79NMc5c1RnFC6ywy9T+WWHPyEhNnYwZQ9Z+MtwPznzDwCRQwoAXV2dnZ2dgesF5VYBKQS8+y53CHR2ut1ut+qsw+2JJzjKbQJydAAAwHjwKAcABnf55Ryfeopjf5rajUkW4dOn8xn+m2+eN2/ePKKsrJSUlJTBf//Awp93/LHoB4h8Mg9fOgO8Xj4yIKQg8Oaba9asWUO0fPnatWvXEnV3R9NQQTkSIEcE5MgAAIBx4LEOAAxGLpj76U85yvCmyB9DN3bs0KFDhxLdeuv8+fPnB67pCxa5vk8W/gAQvXw+6QzggoAcHRCVlTxU8KWXPvnkk0+I1q7dvXv3btVZh4uMTfzNbzj+6lfyU1OdGQDAuaAAAAAGIRfSyVnMmTNVZxRqRUXZ2dnZRLfcwgv+8eOHDRs2LPi/jiz8nU7s+APAmUlngAwT7G337iNHjhwheuaZ999//32iI0dOnjx5UnXW4fLxxxzvuINjRYXqjAAAzgaPeQCguYsv5vjMMxzT01VnFCrJyfHx8fFEt922YMGCBUQzZ44dO3Zs6M7eY8cfAPrrbDMDhHz92Wc7duzYQfTiix9//PHHRPX1zc0yWi9y1dZyvPFGjp98ojojAIDeUAAAAM1YLBx/8QuO993HMfJa/M1ms9lsJrr44qlTp04luvHGuXPnziVyuRwOhyN0vy6u8wOAwZKFvhQCpDDQm8fD1wq+9RbPDnj11VWrVq0i8nrP/O9HBnllP/whR7mNBgBAPTzyAYAmMjI4PvssxwULVGcUKtLa/81vXn755ZcTDRuWm5ubG/pf12yWhT/fDoBFPwAMHhcCvF5e6Hd1yS0Bp3cGiOrqxsbGRqLHH3/77bffJtq+/dChQ4dUv4ZQe+kljl/7GkfcIgAA6uDxDwAUmz6d42uvcczKUp1RsMXF8TV6cpZ/3ryJEydODN+1etJpEFj4Y8cfAEJDhgV2dvKtAb2HB4reRwWWLOHZAS0t7e2RuzzeuZPjNddwLCtTnREARB88AgKAInJG8sknObpcqjMKFllcX3jh+PHjxxPdfvvChQsXEiUm8gI8fHnwQl8W/lIIAAAIl3MNDxTt7XyU4LnnPvzwww+JPvpo8+bNmwPXE0aWlhaOd97J8fXXVWcEANHDojoBAIgWsvSUa5P++leONpvqzIIlOzs1NTWV6N57b7rpppuILrts+vTp04mcTrvdbg9fHlj4A4AuZNiozB6R6wV7s9ttNpuNaNKkkpKSEqJRowoKCgqIDhw4ceLECaK2Ni4QRAaZ8nLDDaf/888+U50ZAEQ+dAAAQIjFxXFcsoTjVVepzihYZKd/4UIe4ifT+x0OfpBVlY/TyQt/q5UfuAEAdNHXIwJChgXK8MDXX+fo8335f2dMb77J8dZbOba1qc4IACIPCgAAECIy1u6NNzhOmqQ6o2CR6/ruvnvx4sWLiSZOHDFixAjVWRE5nU6n00lks4W34wAAoL+ktd/t5p19GSJ4LocOVVRUVBD9/e+vvvrqq0QnT9bX19erfjXBJrMCLruM4/HjqjMCgMiBAgAABFnkDvWbMWP06NGjib7xDZ7eL8P9VLPbecHvcHABAADAaLxenhHQ1cUzA85FrheUmQHvvbd+/fr1kTYzoLKS4+WXc9y6VXVGAGB8KAAAQJDcdBPHf/+bow5L48GRoX2y4J86deTIkSNVZxUgZ2tdrpiYmBjV2QAADJ7f7/P5fEQdHXxEQG4LOJft28vKysqI/vWvN9544w2ixsbW1tZW1a8mWOQogMwMePdd1RkBgHHhdCgADNL993P85z85Gn+onyz0f/zjW2+99VaioUNzcnJyVGcVIEP9XC651k91RgAAwWEy8fub1cqdTVIQOFchICsrJSUlhWjWrHHjxo0jqqioq6uri5QjAnKoSwoAJ05w3LZNdWYAYDwoAABAP8ly849/5PiTn6jOaLBkOvUtt8ybN28e0V13XXrppZcSORx6naX/4nR//hoAINLI+11gpgkXAHw+Lgicjdy6MnPm2LFjxxJlZCQnJycT7dhx+PDhw+f+7/UmY12vvJJjSgrHFStUZwYAxoECAAD0kSyFZZr/N7+pOqPBSk9PSkpKIvrJT2677bbbiGbMGDNmzBjVWZ1dTAy3+kvBAgAgWsiRJyl69nUhX1iYlZWVRTRtGnd27dlz9OjRo0QtLe3t7e2qX9VgTZvGcdgwjsuXy09HdWYAoC88QgLAOcTGcnz9dY7Gv8Zv8mS+Z1oW/pmZ3DqqKxnuZ7OpuV4QAEAXFgsXAsxmLoR2d/M1geeSkMAF1Dlzxo8fP56opqapqamJ6PjxmpqaGtWvarDGjeM4cyZHGcLrdqvODAD0gwIAAJxFcjJHGTY0d67qjAbKYuEzpdddN3v27NmBoX52u94LatnxcjodDoeDiJtiVWcFAKCevK/L+2RfCwFWKxcOpk8fNWrUqMC1rtu3Hzp06BCR39+3oYN6KiriuHAhx1df5djRoTozANAHHiUBoJfsbI7vvcdRdhaMJyUlISEhgei7373uuuuuIyotzc/Pz1ed1bnJkD856y9nYQEA4MxkSKDcHiDDA/tq//5jx44dI/rzn5cuXbo0Um4R2LuX4/z5HOVaQQCIZnikBID/v9JSjjJMyAhL5TMbN27YsGHDiL7znWuuueYaooQEXkjrThb5Mt0fZ/0BAPpHCgFdXZ2dnZ197wwQTU1tbW1tRH/5CxcC9u4tLy8vV/2qBuvAAY4LFnA8dkx1RgCgDh4tAaLexIkcP/6Yo3QAGM8ll0ybNm0a0X/+59VXX331qa3zxoCz/gAAgxO4PYDfR3t6/H6/n8jv53gucovArFk8K8Dt9ng8HqKDB0+ckMv3jCc1leM113B8+22ODQ2qMwOA8EMBACBqycL/gw84ygOCccgO+de/ftlll11GdO21fMbfaC3z8qAqBQAAAAgOmREgM1T6enuAXLM6fnxxcXExUW5uWlpaGtGWLQcPHjxI5PP1raCgl6Qkjtdfz1GO+tXWqs4MAMIHBQCAqDNhAkfjLvxjY10ul4voBz+46aabbiKaMWP06NGjVWfVf3LW3+Xi6dRGK1wAAOiP31cDhQDW10KAGDIkIyMjI3DEbNOmAwcOHAh0CBhLfDzHm2/m+OmnHCsqVGcGAKGHAgBA1DjvPI4ffcTReAv/nBzegfn5z++88847iYYNy83NzVWd1cDJwl8KAQAAEFpSCJD33f7OCJDhstOnjxw5ciTR9u2HDx8+TNTaysMHjcXl4igdAatWcTx+XHVmABA6KAAARDzZ8f/wQ47GW/iPHTt06NChRD/96W233XZb4AHMqOx2PmNqs3EEAIDwkiNkUgjw+fpXCJBOtNmzeVbA0aNVVVVVRFVVDQ3GO1kvh89uvJGjFAIwLBAgEqEAABCxxo/naNwd//nzJ02aNInov/7r2muvvZbI4TD2glkeNJ1OaflXnREAQHQLFAI4dnd7vV5v3/97m407Cs4/f8yYMWOIWlra29vbiQ4frqw03qV78gkrwwJl48B4rwQAzg4FAICIIzv+xlv4y4L4jjsWLVq0iOjmm+fNmzcvclrkY2LQ8g8AoCN5X7ZaB1YIkKGBkyaNGDFiROD77dlz5MiRI6pfXX9JR4AUAt59l2NNjerMAGDwUAAAiBiy4y8V+7Q01Rn1lTwo3X334sWLFxMtWjR16tSpqrMKHoeDryO0WnG9HwCAzuTzyGLh9+vu7oEN+Rs1qqCgoCAwPHDzZh4aaKzbA2JiOF53HcflyznW1anODAAGDgUAAMOT+fcff8zROAt/u50fsL7//RtuuOEGogsuGDt27FjVWQWPtJY6nXxWFAAAjEF29C0WbvH3evvXESDy8tLT09OJSkry8/PziTZs2Lt3716i7u7+3UKgVmwsxyuv5Pj66xybmlRnBgD9hwIAgGHl5XGUhX92tuqM+io2lu+7v+++W2+99dbAtUqRQo4yuFxxcXFxuN4PAMCoAkcDuBDQ31sDREZGUlJSEtH48fx5t349FwI8noEVFtSQ8btXX80RhQAAI0IBAMBw5Ez/J59wLC5WnVFfJSbygvj++++44447iIYPz8uTMkYkcTi4wNH73mkAADCmwNGAwRUCkpPj4+PjA7MCNmzYt2/fPqKuroEdNVAjMZHj5ZdzXLaMY1ub6swA4NxQAAAwDGnBW7GCowz7019mZnJycjLRAw985Stf+UqgJTLSyBRplwst/wAAkeiLhYCB7eAnJMTGxsYSTZ5cUlJSQrRp0/79+/cTdXS43W636lfZVykpHC++mONLL3Hs7FSdGQCcHQoAANqTsXGvvspxzhzVGfWVDD/62c/uvPPOO4nS07kFMlK5XJjyDwAQDeR9fqDXB4r4eP7cmDZt1KhRo4i2bDl48OBBora2zk7jLKMzMjjK88nzz3M0zuEGgGiCAgCAtuTU+BNPcJQpvPorLMzKysoi+vnPeeGflMSt/5HKbrfb7XYim40jAABEh94dAT7fwAoBMTF8dOz880ePHj2aaMeOw4cPHyZqbm5rM05jfW4ux3HjOL78MseeHtWZAUAACgAA2vrTnzh+61uqM+mrggJe+P/sZ3zGX3Y2IpU8+Dmd/Dox6A8AIDoFqyPA6eRC8gUXjBkzZgzR3r3l5eXlRPX1LS0tLapfZV+VlHDMzOT49tuqMwKAABQAALTzox9xvP9+1Zn0VbQt/IUs/C0WtPwDAMCphQCOAx0WaLdzR8GMGdwRYMxCwOTJHDs6OK5ZozojAEABAEAjd93F8W9/46j/fnJBQWZmZmbgjH+0LPxtNpvNZgu0/gMAAJzKYuFOAOHz+Xw+X/+/j83GhYDp03lGwM6dfDSgsbG1tbVV9avsq/nzOR44wHHXLtUZAUQzFAAAlJs4keNrr3HU/+K43Fye4i/X+SUm8jTjSGcymUwmU2DYn3wNAABwJoHrYHt6enoGXwiQjoAdOw4dOnSIqKnJCDMC5JPyiis4rlvH8fBh1ZkBRCMUAACUkQ/Ed9/lKMNz9JWfzzv+DzzAO/6JiZE93K83h4OHNAUe6AAAAM7NauWOAL+fCwF+v9/v9/f/+8jRgKlTR44cOZJoy5YDBw4cIGpt7eiQRnt9SU+EFAJkNkBNjerMAKIJTq0CKDNvHsfx41Vnci5ynZ/s+Mv9xdFCznJiyj8AAAwMd4w5nS6XyzX4QrJ03skRvMzMlJSUFNWvse/ZczTOBghAJEEBAECZyy9XncG5ZGenpqamBh4woqXVvzfZ+Ue7PwAADIZ8jrhcXAjoPSugv5KT4+Pj4wNDeNPSEhNlea2/vDyOr77K0elUnRFANEABAECZCRNUZ3A28kDxk5/cdtttt0Xvwt9q5WF/aPkHAIDgOn2mjHSaDVR6elJSUlKgYC+f48YwdSrHRx9VnQlANMAMAABlvv1tjjk5qjMRsbG8033//fwAkZublpaWpjordTDsDwAAQkk+X6TQ3N3t8Xg8A/9+cXHcWTBx4vDhw4cTrVu3Z8+ePURut9fr9ap+teciRyLlfoO1a1VnBBCJ0AEAoExTk+oMhEwX/sEPbr755psD1/tFK4fD4XA4Br8jAwAA0BfyeeN0BqfjTm7rue++W2+99VYip9NIM2z+8AeOCxeqzgQgEuHRFkAZ9ffgygPHd7973XXXXUc0cmRBQUGB6qzUMZlk2B8XAAAAAMJJbguQ2TODNXRoTk5ODtH3vnf99ddfT2SxGKGwLVMRXnyRY3Gx6owAIgmOAAAoIzf33nVXuH9laWf/5jcXL168mGjmzLFjx45V/fNQz+nkhf9ghzIBAAAMRuBziK8N9Pl8Pp9v4N9PhvqmpPBsgE2b9u/fv1/1qzwXl4ujdAI8+yxHt1t1ZgBGhkdcAGWOH+e4aBFHmYYbejfddNFFF11EdNll06dPn67656BeoPWSz04CAADoQGYD+P1cAPD7/X6/f+Dfr6goOzs7m8jv58LC3r3l5eXlql/lucg0opEjOb78MseeHtWZARgRCgAAym3aZE2zJFoSv/51f0ePu8cduua8Sy6ZNm3aNKJbbpk/f/581a9bH7Lwx5l/AADQUWBIYHd3dzf3BQxm+Tt6dGFhYSFRbW1zc3MzUXl5VVVVlepXeS6lpRzlk/qTT1RnBGBEKAAAKPT6Lb///e9/P29ewUUZSRlJ11+/fv3evXv3Dr7C39uiRVOnTp1K9NWvXnLJJZdgqr2QFksZ+ifXMgEAAOgkcFsAX0/b3T24qf7y/SZN4tsCysoqKioqiKqrGxsbG1W/2nOZNYvjpk0cDx5UnRGAkaAAAKDA67f8/ne//93Ysd7rPA94HlixIisz5cqUK81mubZn//7jx48fJ2ppaW9vb+//95fr/O68c9GiRYuIrr9+zpw5c7Dw7y1Y9y8DAACEg3yOWyzcEeD1Dq4QIJ9/U6aUlpaWEm3bVlZWVkbU1NTWJpOK9CNPMnKE8oUXOLa0qM4MwAiwFAAIo7cmPvLII4/ExLgfrXmk5pHKSv9h3xW+KxITe/970tonQ3rWrt29e/duokOHKisrK4laWjo6OjqInE7eCZDrfiZNGjFixIjAUL/4eF7gwulkB8Xlwpl/AAAwLrfb7Xa7iTwejoPV2Nja2tpK9JOfPP74448T1dXxEQG9rV7Ncc4cjt3dqjMC0BkKAABh9Jrj16N+PWrvXu+S7hu6b5CzbBBusbFxcXFx2PkHAACj4w2Dzs7Ozs7OwIyAwSovr66urib66U+feOKJJ4jcbo/H41H9Ws/l97/neN99qjMB0BmOAACEwasTf3P5by5/6aXuP3cv6F4we7bqfKKVzWa32+1ENht3AAAAABjb6bMBAkcCBjckMCmJC+V5eWlpaWmBTkS9XXABxy1bOB44oDojAB2hAAAQQq+P/nXhrwtvv9370+5Luy/96U9V5xOt5LSg08lHIjALAQAAIol8plmtPNzW6w1OJ4AcMfT5eDix3tcGyk9B7jl6/nmOra2qMwPQCZpfAULgjfMfev2h13Nyusv8tf7aJ55QnU+0k50RsxkLfwAAiFxmMxcAnE4eBhwsN944d+7cuUSTJpWUlJSofpXnkp7OUQoAVqvqjAB0gg4AgBC4/pHz089P37nTf7l/vn9+SorqfKKdTPvHzj8AAEQDueZWhgr7/T6fzzfw7xe4NpCHDW/efODAgQMDv60oPAoKOMq0n08+UZ0RgA5QAAAIotcv/s1tv7nthRe6R3fndefNnKk6n2gnZ/3l7D8AAEA0kesCfT6eDSAFgYGy2fj7jR1bVFRURPTZZzt27NgRvCMHoSHPY2vWcDx8WHVGACqhAAAQBK93/67yd5VXX+1xeo54jvzqV6rzAYadfwAAiGby2SeFAK83ONP85ZrhoqLs7OxsotWrd+3atWvwBYbQ/hRkNsBTT3Hs7FSdGYAKKAAA/H/kA2LiRI7XXsvxiis4SgV5yBCO1dXvj33wmQefiY3tGOLe7N68Zg35erp6uiz4e6UYdv4BAAACpBAu198G67rArKyUlJQUIouFv++uXUeOHDmi+tWeTXw8x7w8jq++qjojABWwJwZAN97I8Ze/5DhiRN/+O79/0v8bsX3E9s7O20sXPrbwsdjYnBy+LgfUio3l64vkQQcAAAACOjs7Ozs7ibq75drAwZGd/z/+8aWXXnqJaOPGffv27VP9Ks/lhhs4Ll2qOhOAcEIBAKKQw8Hx0Uc53nHH4L8j7zjfc89VV111FdGMGaNHjx6t+nVGH9n5dzpdLpdLdTYAAAC64gV7W1tbW1tb8Fr329u5sPCDHzzyyCOPENXWNjU1Nal+rWdTV8dx7FiOVVWqMwIIB7QqQxSSs1+33x6s7yj3465fv2fPnj1E+fkZGRkZRHl5fH8uhIcs/LHzDwAA8GX4SIDcFuD1BqcTwG7nQvyIEXl5eXlEK1du3759u66zAWJiOMrFhi+8oDojgHBAAQCiyLe+xfG++0L9K23ffujQoUNEc+dOmDBhApHTibPooWS18nAju93hkP4OAAAA+HK9C+Y+3+CuCxSpqQkJCQlGmQ0gBYDjxzlu3ao6I4BQQgEAooDcAyvDXkK/RJTrcPx+rnhPmFBcXFys+ucQuRwO7PwDAAAMlBTSZThgsHbsS0vz8/PziQ4erKioqCCqrm5oaGhQ/WrPZt48ji+/zLGxUXVGAKGAR2WIAg8/zFGmv4bP55/z/bh6tr4Zn+wsWK3cwggAAAADJ9fnBovcPvCf/3n11VdfTZScHB8f/qexvoqL4yhHRbGlAJEJf7Ahgn3lKxwvvlhVBs3N7e3t7UQnTtTW1taq/nlEHrT8AwAABI/ZzAt2p9PpdDqD930TEmJjY2OJvvOda6+99lrdO/bk2udvf1t1JgChgD0ziEDZ2RzffJOj+nnwU6eWlpaWEmVm8n25MDiyo4Bp/wAAAMEnHXYy5Linh+NgZWQkJSUlBToj9+w5evToUdWv9mxmzeL4/PMc9b3PAKA/tK29AQzcP//JMTlZdSZCPkghOLDzDwAAEEqndwJI4T1Yrrtu9uzZs4lGjiwokElN+omN5SjPlQCRAUsSiCA33sjx6qtVZ9JbSgpPw4XBkYcPm42vGQIAAIDQkVb9YBfepaBwzz1XXXXVVbrflnTppRyvuUZ1JgDBgAIARIC0NI5//7vqTHpLT+dWt+zs1NTUVNXZGJ/Nxg8gwd6JAAAAgLOz23mBbrEEd+huZmZycnIy0a23LliwYIHqV3ku//gHx6Qk1ZkADAYKABABfv97jhkZqjPpbc6cCRMmTFCdReSQBxAAAAAIv1DN3lm4cPLkyZOJzjtv+PDhw1W/yrORGVO/+pXqTAAGAwUAMLAZMzh+9auqM+ktMTEuLi6O6PLLZ8yQLGHgrFZu+cfOPwAAgDpyJMDhCO4tAfL5fvfdixcvXkwUG6vzkN977uGIJzwwJhQAwICk+UyGsug3Xu+uuy655JJLiFwuDKsLBpsNO/8AAAC6CNWRAJmZ9NWvXnyxukucz0WeOx95hCOmEoGxaLdwAji3//gPjuedpzqT3iZNKikpKSGaMWP06NGjVWdjfLLTYLUG9wEDAAAABi9URwJmzRo/fvx4ounTR40aNUr1qzybsWM5fu97qjMB6A8UAMBAMjM5/uIXqjPpLTaWW+G+8Y3LLrvsMtXZRA6c+QcAANBXqG4JEF/7Gj9XJSbGxsqlfPr5+c85FhaqzgSgL1AAAAP505846jd99Stf4ZZ/XPcXLHwWUM7+AwAAgL4cDi7YB3tWjyz8pRCgp5gYjg8+qDoTgL5AAQAM4MILOd5yi+pMehs7dujQoUOJZs0aN27cONXZRA6bzWq1WjH0DwAAwBj48zrYwwGFHAWYPJmPWurpuus4zp6tOhOAL4MCAGjMauX4f//HUZ+loAz3+9a3rrzyyiuxUA02mw3DEwEAAIzGZuPOPauVC/nBdtddl1566aVETqfORwT/+leOmF4EesIfTNDY3Xdz1O+av698hafTSgcABIfZzMP+HA4UAAAAAIxKbgfwej0ejyd43zcmhjsMZDjwjh2HDh06pPrV9paVxfH4cY5btqjOCOBU6AAADcXHc5ShKvoYNiw3NzeXaMGCyZMnT1adTeTB0D8AAADjC/VwwEsvnT59+nSioqLs7Oxs1a/2bH7zG46JiaozATgVCgCgoZ/+lKNM/VdPWvy/9jVuPUPLf2jI2X8AAAAwPhkOKAWBYLFY+Pt985uLFy9eHPzvHxwZGRx//GPVmQCcCkcAQCNyfcqSJRz1WQpefPHUqVOnEs2bN2nSpEmqs4k8Mu1fzg4CAABAJOANE5OJF+jd3V6v1xu8756SEh8fH0/U2trR0dFBVFZWUVFRofo19zZlCseXXuLY0KA6I4hu2tXKIJr97nccQzE/dmASE+Pi4uKIbrzxoosuukh1NpHLbsfCHwAAIFJJh1+ohgPedBM/p6Wm6ngdsxxu/MMfVGcCQIQCAGhh2jSON96oOpPebr99wYIFC4hiY0NzrU20M5t5Z0CGBQEAAEDkCtWQX7md6StfueSSSy5R/SrP5qqrOGJLCdRCAQA08Mc/ctTnVH1paX5+fj7RhReOGzdunOpsIpfVKkP/MFMBAAAg0sltP6E68jdt2siRI0cSjR9fXFxcrPrVno10AuDJB9RAAQAUuvZajjNnqs5EyE70N75x+eWXX45hf6GGM/8AAADRx+GQzsrQPGfdeeeiRYsWBYYF6kWmSUlHAEB4afdXAqKBvBX/7GeqM+lt0aIpU6ZMIRoyJCNDZrdC8FksfAZQz6m9AAAAEEqywRKqGUB5eenp6em6D2/+1a844hAkhBcevUGBW27hqE9zvZzxv/baWbNmzVKdTeTDzj8AAADY7Xx2P1QdlzIcMC7O5XK5VL/a3kaP5njzzaozgeiCAgCEkVQ4f/pT1Zn0du21s2fPnk0UHx8TExOjOptIxh/wcu0fAAAARK9AJ0BohgPKwv+aa3Te4JFOALktACC0UACAMPrqVzmWlKjORGRmJicnJwda/yG05BogzFUAAAAAYbfzUOBQHQ285JKpU6dOJcrJSUtLS1P9ansrLOQoz8kAoYUCAISBVDR//GPVmfR2220LFy5cGFiYQmhh5x8AAADOJlTXBMqQZ7neWU8yGwu9qBBaKABAGHzzmxyLilRnIkaMGDJkyBCiqVNLS0tLVWcTDaT1H4UWAAAAODPZKJAFe7BNmlRSUlKi6zWBOTkc/9//U50JRDYUACCE+IIXoh/9SHUmQlrPv/rViy+++GJc8xcu6LAAAACAvgrVTAAhnQB6Pgfedx/H+HjVmUBkQgEAQuhb3+KYm6s6E3H++WPHjh1LNGxYbq4+WUU+tP4DAABAX0nHoNkcmk6A/PzMzMxMopkz+blQLzKl4DvfUZ0JRCYUACAEpGb7/e+rzkTIUJnrr+dp/xAeUllH6z8AAAD0l9MZ2k6AG2+cO3fuXCKrNTSFhsH53vc4xsaqzgQiCwoAEAJ33MFRnz32OXMmTJgwQdfpr5ELO/8AAAAwUBYLbyCEaiZARgbfBjV7Nj8n6iU1lSNuB4DgQgEAgkjemv/nf1RnIqSie801F1544YWqs4k+NhsKAAAAADA4oZ4JcMMNc+bMmUNkt+v43PKDH3DULzMwJhQAIIiuv57j8OGqMxHz50+aNGlSoMIL4WE2c+t/qCr2AAAAED3kKGGoniuSk+Pj4+MDz416GTKE4003qc4EIgMKABBE+uz8y9T5q66aOXPmTNXZRB9p2QMAAAAIllB3AkjHqMsV2l9nYOR2ADPWbzAo+AMEQXDZZRwnTlSdibj44qlTp04lSklJSEhIUJ1N9EHrPwAAAARbqDsBEhJiY2NjA8+Rehk5kuPixaozAWNDAQCCQCqS6knFFjv/asjUf7MZHQAAAAAQGqHuBLjiigsuuOACothYl8vlUv1qe/vxj1VnAMaGAgAMgiyxL7hAdSZCzm7Fx8fExMSozib6SEXeZFKdCQAAAEQqGfIs1zwHW2ys0+l0El166bRp06apfrW9SW/C3LmqMwFjQgEABuG731WdgZAz/5dfPmPGjBmqs4leuPYPAAAAQo87Du12u91uD92vIkcBnM7Q/joD86Mfqc4AjAkFABiA/HyOV16pOhMxd+555513XmCKK4SX7PhLIQYAAAAg1Gw2XpjLEcRgk47SefN0vB1g4UKOY8eqzgSMBQUAGIBvf5uj+qWetH5h51+twNT/0HwAAwAAAJxNqGcCyHOmHD3Qy7e+pToDMBYUAKAf5FT9XXepzkTMnDl27NixRFlZKSkpKaqziV649g8AAABUCXUnQGoq3yp14YXjxo0bp/rV9nb77RwTE1VnAsaAAgD0g7zBpKaqzkTe3K+8kqe0glpyLQ8AAABAuMlzYahnEclzZ6gKDQMTF8fxK19RnQkYAwoA0A//8R+qMxBTpowcOXIk0ZAhGRkZGaqziV5yBCNUU3gBAAAA+irURwFyctLS0tKIpk4tLS0tVf1qe5Mjungigy+HPyDQB/PmcdRnyMgVV5x//vnnq84CsPMPAAAAujCbeWc+1M8nV101c6Zchq2P4mKOCxaozgT0hgIA9MF3vqM6A1FcnJubm0s0YsSQIUOGqM4GUAAAAAAA3YS6E2DYMH4eHTOmqKioSPWr7U06AQDODAUA+BK5uRwvu0x1JuKyy6ZPnz5ddRYgMPwPAAAAdGOx8LT+UB9RXLxYx47USy/lOHSo6kxATygAwJeQaf/qLzxJTo6Pj48nmjZt1KhRo1RnA1j4AwAAgO7kdoBQmTChuLi4mCg7OzVV/YhsISUPXA8IZ4YCAJyBzDW9807VmYhFi6ZMmTJF1/tXow9a/wEAAEB3gesBQ/P95TaAhQsnT548WfWr7U028lwu1ZmAXlAAgDOYP5/jsGGqM7HZeKE5b97EiRMnqs4GBAoAAAAAoLvA9YCh7QSYM+e88847j8jhCO2v0z8pKRyvvFJ1JqAXFADgDL7+ddUZiJkzx44dO5YoMTEuTm45BXVw7R8AAAAYjd1us9lsofv+sbFOp9NJdOGF/NyqF306ekEPeISHU6SlcdSnUnjppdOmTZumOgsQMlQHAAAAwCjMZn5+CfVzzCWX6PjcunAhx7w81ZmAHlAAgFPccQfHUF6c0jdyzV9BQVZWVpbqbEBg+B8AAAAYVaiHAg4ZkpGRkUE0cmRBQUGB6lcrpGfz1ltVZwJ6QAEATvG1r6nOQODMv55QAAAAAACjstn4KECohgIKGV6tFxkKCNEOBQAgIplbqv6CPZfL4XA4iGbMGD169GjV2YAInP3nabcAAAAARmW1hnYmgFxbnZKSkJCQoPrVihEjOE6dqjoTUAsFACCim29WnYGQoX9Op05TVAE7/wAAABApQn0UwGLhjZO5cydMmDBB9avt7StfUZ0BqIUCQFSTM0E33qg6E4HWfz1h+B8AAABECnmuCfWtRrNmjR8/fnzojxz0z003cXQ6VWcCaqAAENXmzOGYm6s6k4KCzMzMTKKhQ3NycnJUZwO9Wa3oAAAAAIDIEuqjANnZqampqYHh1npITua4eLHqTEANFACimj6t/wsWTJ4skwhAH1IZN5lw9h8AAAAiiwwFDLU5c3Q8CiC3f0G0QQEgKsk1f9deqzoTm413luXsP+gFZ/8BAAAgUgWGHIf2qOP5548ZM2YMkcMRnoJD3yxYwDExUXUmEF4oAESlSy7hKC1A6kyeXFJSUkIUE+N04iSSfqxWnP0HAACAyBbqTgC55Wry5NLS0lLVr1bIhuDll6vOBMILBYCodMstqjMQ2PnXGzoAAAAAINKF7ygADwXUi/qOYAgvFACiSkwMx8suU51JbKzL5XIRTZhQXFxcrDob6E3O/OPsPwAAAEQ6ed4J9dDjceOGDRs2jCg1NSEhIUH1qxbSGRwfrzoTCA8UAKLKokUcpRCgzvTpI0eOHBmYAQB6wbV/AAAAEG1CfSuAFBpmzhw3btw41a9WyCFcKQRApEMBIKpceaXqDARa//WG1n8AAACINuE6CnDhhTo+B+MoQLRAASAqyF6u+tb/5OT4+Ph4opEjCwoKClRnA2cT6mm4AAAAALoK9VGA/PzMzMxMotzctLS0NNWvVsgwQPWdwhBaKABEhVmzOKp/i5Gdf7l2BfRkseD3BwAAAKJTqI8CiKlT+UisHmThL0eGIVLhET8q6NP6P2PG6NGjR6vOAs5GCjMY/gcAAADRKlxHIadPHzVq1CjVr7Y3HAWIdCgARIUrrlCdQUoKTzsdNiwnJydHdTZwNhj+BwAAANHObOaNkFA/FxUVZWdnZxNlZCQnJyerftVCjgxjGlSkQgEgok2cyLGoSHUmU6eWlpaWYmdZdxj+BwAAAMDCdRRg2jSdjgIkJUlWqjOB0EABIKItXqw6AzFlChcAQG84+w8AAADAQj0MUOh5FACzACIVHvUj2sKFqjOIjXU6nU6iUaMw9d8ITCYcAQAAAAAgCsxGCvUGSXFxbm5uLlFqamJiYqLqVy0uvlh1BhAaKABEpIQEjlOmqM5k8uSSkpISnC3Xnfz+4HgGAAAAwOlCfURSjsjKkVk9TJrEMT1ddSYQXCgARKT58zmG49TSl9PrehM4G7MZBRoAAACAMwnXUQC9jsxKz4OsKyBSoAAQkdT/RbXbeWjKuHHDhg0bpjobOBdpcQMAAACA00kHQKiHWZeW5ufn5xM5nXa73a76VQvMAog0eOSPSOrP/suZf4cjPNNTYXBwRAMAAADgy4X6eclq5e8/enRhYWGh6lcrpACAg6KRAgWAiCLX/anfcx8/Hjv/RoIjAAAAAABfLlzXJY8fX1xcXKz61YqsLI7jxqnOBIIDBYCIos+0TrT+G4O0/qOmCwAAAPDlwjULQM+NNBwFiBQoAEQU9Wf/U1ISEhISiIYMycjIyFCdDZwLdv4BAAAA+iawcRLa2UnZ2ampqalEmZnJycnJql+1mDdPdQYQHCgARATZv505U3UmelYs4Www/A8AAACgf+SsfqjpdRRg+nSO2DoyOjz6R4SSEo7q99zR+m8sKAAAAAAA9E90HgVISOA4dqzqTGBw8OgfEdTv/Mu1KGPHFhXJKELQn8WCAgAAAABAf5jN4SkAjBnDz9V63dZ0wQWqM4DBwaN/RDj/fNUZFBZmZWVlESUkxMbGxqrOBvoKHQAAAAAA/WM288ZXqJ+jXC6Hw+EgGj48Nzc3V/WrFigAGB0e/SPChReqzmDkyIKCggLVWUBfSccG/3+qswEAAAAwnnDtzJeW5ufn56t+tQIFAKNDAcDQMjM5qh8PotcbE5wLpv8DAAAADI7FEp6jACUlOj1nSyZDhqjOBAYGBQBDU3/2X5SUDBmCtwHjQOs/AAAAwOCEa5ZSaSk/Zwc6OHWATgCjwhLA0NSf/c/KSklJSSFKTo6Pj49XnQ30FQoAAAAAAIMjHZWhXpTHxrpcLhdRTk5aWlqa6lctUAAwKiwBDG3qVNUZoPXfmPSaJgsAAABgXOE6CiCdAHpAAcCoUAAwJNm7HT9edSYoABiTTK8FAAAAgMEJ18aKXrMAxo7l6HSqzgT6BwUAQ5Khf+qb7lEAMBpe+Ot1hgwAAADAuMJXANCpA0B6HkaNUp0J9A8KAIY0caLqDGJjnU6nkyg7OzU1NVV1NtBXgZ1/FAAAAAAAgsFsDs8RAHnuTkqKi4uLU/2qxbhxqjOA/kEBwJDOO091BkVF2dnZ2dhJNhqTCcP/AAAAAIJJnoXD9ZxVXJybm5ur+lUL9UeSoX+wFDAk9R0AUgAAYwnXdTUAAAAA0SZcz1mFhVlZWVmqX61AB4DRYClgSBMmqM4ABQBjQscGAAAAQGjItYChVlCQmZmZqfrVCnQAGE0YTqtA8Mi4PfU3gBYV6VR5hL5SdQTg5Mnm5uZmolWrdu/evZto06Y9e/bsIaqpqaurqyPq7Ozq6uoi8vl8Pp9P9U8peGQnIDY2JiYmhqiggP/eLFgwefLkyUQzZowaNWoUCjMAED16enp6enqI1q7lz4P339+8efNmomPHqqqqqoja2zs6OjqIfD6/3+9XnW3wyJA4l4tnKGVmpqenpxNNmcKfAzNncszKSkxMTFSdLQyU2Rye5yx5ntCDTAOTQwkVFaozgi+HAoChjBmjOgOHw2632zH8z6jC9cHU3u7xeDxEb73FD3YrVqxatWoVUVUVP+BFm5aW1tbWVqKTJ6urq6uJ1q3bvn37dqLcXK7g/+hHt956661ExcV5eXl5qrMFAAi+gwePHz9+nOj3v3/uueeeI6qsrKmpqVGdVfi1tLS0tLQQVVfz69+xgwshy5fzgu6SS2bNmjWL6PLLJ06cOJEoJoafu8AYwnUbQGZmcnJyMpHTyX8+urr4uUstOQqAAoDuwvBHFILn8ss5LlqkKgMZOjJvHn8wgbHY7bzzEKod58ZG3rn5978/+uijj4jefvuDDz74gKi5mTsA4HStre3t7e1EH3ywcePGjYGWvvx8nVr7AAAGbtUqLnj+7GePP/7440TNzVwQhdO1tbW1tbUR7dt36NChQ0QNDdwRV1KSk5OTQ+RyoRBgBPJ85fG43W536H+dTZv279+/n6ihgQtLau3axfHzz1VnAl8OMwAMpaREdQaFhViYGFngGsDg6uryer1eomXL1q9fv55o5crVq1evJnK7Q/sBGCm6u7u7u7uJfv/7JUuWLAnslAEAGNX+/ceOHTtG9Ic/PPvss88G3ufgy3V18ZG4Tz/lzrllyzZs2LCByO3Gz89IwncUQKfncgwDNAocATAU9QWA3Fw+swbGEuoPoo0bjxw5coRo3Tpu+ZcHGOif7m7e8fnf/+UW2cce++EPf/hDzAiINH4/n20+ebK+vr4+EBsbeWe0rq6pqamJqKmJv66t5a9bW7nDxu3mVk+vlxcEUoCTPz9dXVx4kyNbNhvfT+1w2Gw2G5Hdzl/b7fx1fDzPqEhLS0pKSiJKTo6Pj4//4tdy9Cs7Oy0tLQ23isCZyRn/P/7xhRdeeCHw5xL6Rz5H16/fsmXLFqKRI/mI2MyZw4cPH646OzgXGQYo7/eholcBYMQI1RlA36AAYCilpaozyM3lBz8wllAN/5OFx/r1Bw4cOEBUWVlZWVmp+tUaX0UFnw1dt27Xrl27iGbMGDt27FjVWcG5dHTwA/uePUePHj1KdPhwRUVFBdHRozz7QoacHT/OsyA8ntDu6LW1dXZ2dgb/+1qt/GA7ZMjpR1YKC/l2mKIiblkePbqoqKiIKC7O5XK5Qvc6QS9r1uzcuXMn0YkT/OccBkc+V+VzdvLkwsLCQiKnkwt4oCcpkIa6a0OvYYDDhqnOAPoGBQBDSEjgqP6veE4OCgBGFKrW//Jy3rmsrDx58uRJ1a8y8nz66bZt27ahAKCL5mY+o7tz5+HDhw8T7d7NcdcujocP84N6qHd8VJMd3SNH+PVKXLly69atWwP/nnSuyAPqmDFDhw4dGigMjBtXXFxcTJSSkpAgn3JgfCtX8vsWBId0VMjn7LFjDQ0NDUQjRui08wu9hes6wPz8jIyMDNWvViQlcUxO5tjYqDojODMUAAxBfeu/TBlNSeFWUDCa0BQA6ut5QYQhf6Fx6NCJEydOqM4i+lRV8QO2dGBs2MDXVu7YUVZWVhZ515OFiixcjh7lhYvEt9/mGSFCOgguvHDChAkTiKZNGz169Gii4cNxK4YRlZXhfSsU5HNWPneJUADQWbhmAMTE8HBnOcolR8XUGjqU4+bNqjOBM0MBwBDUt/7Lzj/OIhtTqH7fOjv5CIDHo8P1M5GnuZlvCYDQkIX+Bx/wkK3PP+dp5ceOoXU5nOTn/dxzK1asWBGI8rkzc+b48ePHEy1YMGXKlClEeXk67XhBb3osQCKPDNXt6MDnrRGE6ujl2WRk8LWAevz9QwFAdygAGIL6MzU5OTz8CYwpVEcAHA4eJma1coTgkso+DI4My1u3ju/b/ugjvnZx48Z9+/bti/yWfaOqrKyrq6sjevllvlZUonQGXHLJjBkzZhDNmcPX0rpcDofDoTprkN+HtjYdFiKRw2bjM/8uF87+G4E8c8kGjHREhUpmJhcADh3i2TNqFRWpzgC+HB7ZDWHIENUZYPifsYWqAyA5OTY2NpYoLi4uLi5O9auMPLh1Y2Bkav7rr69cuXIl0YoVvMPf3h6aoXgQXgcPcov5wYNLly5dSvTYY2+++eabRPPmTZ48eTLRNdfMmTNnTuDWAggv6dyorW1sxAng4ImN5c/bxERu9QZjkKMAPl9ob8OQAoAeUADQHQoAhpCbqzoDaS0CYwpVK1p+fkpKSgqfRMzMJCor4zPSEBwXXIDhf30hZ8vffPPzzz//PLDDH+op+6CHzk5ujZbZAsuXr1mzZg3R1KkjR44cSXTTTQsWLFhAVFpaUFBQoDrbyCfvW9u3Hzx48KDqbCJHVhYP0ywo4M9dMIZwHZ3NyOBrW/UgRwBAVygAGIL6DoC0tMTExETVWcBAhaoAEB/PLepTppSUlJQQ7dnDw9IaG7HzMxhxcbzDM3cutzbD6aTF8Zln3n333XeJNm7cu3fv3tC3WIIxyJ+D9ev5/Uji+PF8f/qdd15yySWXEI0cydepQXDNn8+zGp555r333nsPRwEGKymJF3byORsXh6NhRhK4DSC0BWm9NupQANBdGMdTwMCpn4Ocmoprmows1NXnGTOGDRs2jGj8+HHjxo0L3/TbSHX33VdeeeWVmAEgpKX/73/nlu/vfOcvf/nLXwLT+bHwh76QHen//u+///3vfyf68Y8ffvjhhwMdJBAcMgPg619fvHjxYtXZGJd8jk6axLdjyOcsGEuoZjD1ptcRAOm1CsdFiDAQ+I3Rmuy5//znqjKQN61bb+UWSosFCzsjkd8/hyO0C0mHg4cSFRTwUYDjx1taWlqIqqsxTb0/rrxy1qxZs4huuGHevHnzVGejTlsbn9WXHf4HH3zuueeeI9q//9ixY8ew4IfgqKqqr6+vJ3rvvXXr1q0jamjg963hw4cMGTIEQwUHq7iYhzW2tHAHwIED/PcXvpy0jJ93Hi/8v/pVfv5KT8c1zEYkn1Xd3XxrUqg4nfx+9frrfBRO7eekLPz/+U+OuM9INygAaK24mOM996jKICmJh7tdddXMmTNnqv55QH9J5dluD8+DbGKiy+VyEY0dW1RUVETU2MgtbydPciEg1ENwjMZm49sTvv71K6644gqi229ftGjRItVZqbNqFV/D97OfPfroo48Sbd164MCBA5jSD6ElD8oHDx4/fvx4oCBgt3Nhs6QkPz8/H9fgDtSUKTyLwem02+12op07Dx8+fBh/r3tzOPhzetYsvt3i7rsvvfTSS4mys3EEMxJ4vaG9vlGe9z79dNu2bduI2tu7urq6VL/qp5/mWFurOhM4HQoAWpPTv7fdpioDmUI+f/6kSZMmqf55QH/J2X+7nR+8wiU2lh9kzj+/tLS0lKikpLi4uJiovZ0r4DKNXe41jhbJyfwgN3s2/336+c+/+tWvfpVo4sQRI0aMUJ1d+FVVNTQ0NBD97/8uWbJkCdFLL/E1b11duOca1JFrIzdv5msit27lowMyRFAK49A/o0ZxYXjRomnTpk0jam/n9/+GhtbW1lairq7o+DyQQpKc7R8/ftSoUaOIvvGNa6655hqia66ZPn36dKK4OHSgRBKPJzyfa6tX79q1a1ego0mtl1/mWF6uOhM4HYYAai0rS3UGKSloOTMy1btVUpGeOJGHbUn0+3nHra2NK9TyQSUP3pHC6eQdxKwsntosO/7RSnZaX331008//ZRoyZIVK1asIHK7seAHfe3Zc+TIkSNE3/72n/70pz8R3Xjj/Pnz5xPdfDOOxg2EzBT67nevv/766wP/XN7/pTDY1RXalulwk/f/lBQuBMfH8wIfnSWRLdy/vwkJOl0TiYuMdRXFj6JGoP6il5QUDP8zMl0fLKQwkJDARwYkQmRqampra2sj+tOfnn/++eeJNm3inVUAI+nu5iNMzz3HhSu5feJHP7r99ttvJ8rOTk1NTVWdpXHJAnnIkIyMjAzV2QAElzyPhfpsfnw8CgBwbqhZa019AUCvSiL0n54FAIgOW7bwGf577nnwwQcfxMIfIosMtZPOgE8+2bx582bVWQGAjsK1IZOQEBsbG6v61Yq0NNUZwJmhA0Br6gsAsbG4hszIdO0AgMjk8/FQr8cff/PNN98keuONVatWrVI9jRggtDo6+CjTH/7At1Vs315WVlZGdM8911577bVEdnt0H/0BgPA9j6EDAPoCH0laU3+jZ1wcWrONDQUACL3WVr7m6ze/efrpp58O3LcOfWO3x8TExxM5nYmJaWlELhdHm83liosL/O82m9MZG0tktUq0208t0Fos8rX8vefCi8/n8Zw6Dbq72+vt6iLq7u7q6ugg8no7O9vbOba2Enk8nZ1tbURdXc3NdXVEnZ0cPZ72dvVDpfS3YsX69evXEx09WlVVVUX085/fdddddxElJ2OmDkC0Cl8HgE4FAHQA6AoFAK2pLwDExqIAYGToAIBQOn68pqamhugXv3jiiSeeIKqoqK3FZT8BVqvDERNDFB+fkZGXRxQXl5GRn08UF5eenpdHFBOTlJSRwQv3UE77tlodjlPfxwf6a/l8Xq/HQ9TZ2dRUU0PU1lZbW1FB1NpaU3PsGH994gQXEtrawvuz1tH+/eXl5eVE3/nOX/7yl78QPfDA1772ta8RDRuWm5ubqzo7AAin6DwCgA4AXaEAoDX1RwDQAQAAvW3Zsn///v1Ev/3tM88880zgWsdoIw90sqBPSsrLGz6cKDExN3f4cKKYmOTkSBpmZrHYbHZ74PVKzMoaNWratMC/19XV0lJfT9TUdOLEwYOBKIWCnp7ouv+9rq6pqamJ6N57H3rooYeIvv/9W2655RaimTPHjRs3TnV2ABAO0dkBgLGoukIBQGvqOwDi4jADwMjQAQDB9Nln27Zt20b04IN81lmmokeLuLiMjCFDiNLThw0bN44oOTk/f+TIL+6wRzunMyEhNZULAxKnTw8cRWhsPH78wAGiurpDh7ZvJ2ppqa7mW6Ije1ZEVxdfd/nb3/JRmW9/+7rrrruO6NJLZ8yYMUN1dgAQSuF6HtNr4w4rCF2hAKA19acFY2JQAACIdu+/z2ea//a3pUuXLiXy+yN7B1fO2qenjxgxcSJRWhov+J3O+Hj1fVnGJTMK5Ocp0eNpb29uJqqrO3x4506impoDBzZvjtyZAzIU8x//WLZs2TKizk632+0muvbaOXPmzFGdHQCERngKAHKdph5CebgNBkObPyJwJur/4jiddrvdrjoLAFBh+fI1a9asIfrnP1955ZVXIneav+xYZ2SUlEyeTJSRwQt/s9li0edBKnLZ7bGxiYlEOTljx86cSZSTM2bMBRcQNTVVVBw8SFRZuXPn6tWBGQORQv4+ya0Zzc1tbW1tRHfddfnll1+uOjsAMCKbzWKxWFRnIdSvY+DM8GijNfVLb6tVpzcS6C8cAYCBWLbsk08++YToiSfeeuutt1RnE3wxMSkpWVlEeXnnnTd3LlFSUm5ucbHqrCCA37eSkvLyRowIxJaWqqqjR4lOnNi69ZNPIq8gsHTpxx9//HHgaxQCACJHuJ7HrFadOgDQQ6wrbf6IwJmgAACDg8U/9Md7761bt24d0b///fbbb7+tOpvgkev18vImTJg9myglpaBg1CjVWUF/JSRkZRUWEo0adcklX/1qYLjgiRPbtn36KVFHR0NDVZXqLAdPCgFyn/f111900UUXqc4KAIzAbtepAIAOAF1p80cETiXLNnV/hS0Ws9lsxg6y0UViuzYE39q1O3fu3Bk4k2z0Vn+z2Wq12Yiys0ePnjEj0FpuMpnNKGhGDrl1QWJd3aFDO3YQHTu2efMHHxB1d3d1dXSoznLgnnxy+fLlywOFgIsvnj59+nTVWQHAwISrA0CnjTsUAHSFAoCWbDaO6pbeer2BwEChgANfZsuWAwcOHCD63e+WLFmyhMjnM/Zwv9TUoqIxY4iGDJk0af58Irs9Jkb9KFUIFxkqmJSUl1dcTHT8+JYtH39MVFtbVrZtG5HRbhmQQtxDD3FhLi6OCwG4PhDAeML1LCbPfRYLP8f7fCpv65H1jNnM0chPGJHFrDoBOBO0/kOwGOuBF8LjyJHKyspKol//+sknn3ySyOvt7u7uVp1V/8m0/hEjLrroppuIhg278MKrr8bCP9pZrQ5HTAxRUdGMGZdfTlRaumDBbbcFhg0ajdy68Yc/PPvss88S7dlz5MiRI6qzAoD+Ce+GjF7DANWva+B0KABoSf1fFBQAIgU6ACCgtbWjo6OD6Fe/4oW/XD9mNImJPLRvzJjFi7/5zUALOMCZyOyAsWOvuOLuuwO3PBiNFOp+/eunnnrqKaK6uqampibVWQFAX5hM4d2QwXWA8GVQAAAAiHDS2v/b3z799NNPE508WV9fX686q76Ts/uFhdOmXXIJUUnJvHk330xks7lccXGqswOjsFhsNoeDqLBw+vTLLiMaNmzmzKuuCsyMMIrGxtbW1laiX/2KCwEejzE7eACiS3g3ZMxmnuWlB31KEcC0+aMBp1K/J+f1qjwzBMGDIwAQuGd827aDBw8eVJ1N30kr/8iRixbdcQdRRkZJyeTJqrOCSJGaOnTo2LGBWwUcjvj45GTVWfXdgQPHjh07RvS3v7300ksvqc4GAHTS3a3Tc7zHozoDOB0KAFrSoQCAHYVIgMV/dPvss23btm0jev31zz777DPV2fRdXFx6em4u0ejRl1329a/z13l5qrOCSBUTk5ycmUk0evSll37ta0QJCdnZRUWqs+q7jz/evHnzZqLly9esWbNGdTYAcCbhvl1H7fC/3lAA0A0KAFqSpbe6v7rd3VwAMPp1YADRqL6+ubm5OXCtn1EkJmZnDx1KVFLCQ9vQ4g/hZLU6HC5X4IiJ3CphFI8++vrrr79OdPToyZMnT6rOBgBOFe55THp1AHi9qjOA06EAoLWuLlW/siz6jX4tGKCAE02kYPfgg88///zzgaF/upPr20aM4IWXxWK1qh+FCtFKZk7IrRLZ2aNHn3++6qzOTWYB/OlPL7zwwgu6LQAAolu4n8X0eH6XdyD1mcDpUADQGo4CwOBg8R9dXn115cqVK4m2bzfGWf/MzJEjp04lGjr0gguuvJIXXvoMLQJgQ4ZMmjRvHlFu7oQJs2erzubcyspOnDhxgujZZ9977733VGcDAEThex6Ta0P16OBF67+u8KilNXUdAAIFAAD9Scvv00+/884776jO5twyMkpKJk0iKiiYMmXRItXZAPRNbu64cbNmEeXkjBt34YWqszm3pUs/+eSTT4j27Dly5MgR1dkARLvwLMj1uhUErf+6wrUMWtOhAwAthBB9pHV2/36esn3oUEVFRQXRkSOVlZWVRBUVtbW1tURdXW63203U3t7VdWq5LikpPj4+nig5mWNWVkpKSgrRyJGFhYWFRGPGDB06dChRYmJc3GDOuEuF/5//fOWVV17Rv2CXnj58+Hnn8XV+l16qOhuAgcnLmzBhzhyinh6/3+cjOnly1y4dh+/JTuBDDy1dunQp0T/+ce+9995LZLEMrtNGjhbt3s2FBSkwyPWijY0tLS0tRE1NbW1tbYE84uJcLpeLyOFwOBwOouxsfl8cOjQ3NzeXaNgwjqWlBQUFBbrdYw5gDL2fR9QywiHE6IS3Vq11dqrOwOPxelG/g0glC+gdO8rKysqIPv1069atW4lWr96xY8eOgZ+hr6ysq6urO/v/bjLxfcBFRdnZ2dlECxZMnTp1KtG8eZMnT55MFB8fExMTc+5fR6Z/79p1+PDhw6p/mmeXnDxkSEkJUVER378OEAmGDJk4cd48ou7urq6ODqLa2rKybdtUZ/VFR49WVVVVBW4DufbaOXPmzDn3f9fRwQuJTz7ZsmXLFqIVK9avX78+cMRgsC3Gu3YdOnToEBHRxo0bNwb+eWys0+l0Es2YMXbs2LFEs2dPmDBhAtGkSaWlpaWB908AI+npCc+Z/Pb2zk71qwfR2Kg6AzgzFAC0pr4DoK1NpzcS6D8dzoDpQx5Y163bvXv3bqJnn12xYsUKosOHeYc/3HkcPswdBY88wtO7n3zy7bfffpvowgv5gfe66+bOnTuXqLCQCwVCPuCfeOKtt956S/VP9exiY1NTs7MDw9T40V11VgDBVVjIhS23u729uZmopeXkSR1b7p97jt/vZEGdlpaUlJQU+N+lcLlsGR8d+OQTLjB2dXk84TzJKzuYH37IhQGJQ4ZkZmZmEt1668KFCxcSzZrFrwMFAYCAjg7uTNRDU5PqDODMLKoTgC9z880cCwtVZTBlSklJSQlRTk5aWlqa6p8H9JfFYrFYLERWa3S3UspC+4EHnnjiiSeIXnuNh+U1Nra2traqzi5ApvbKUYN33lm7du1aooMHecctIyM5OTmZ6I03Vq1atYpo+3buXNCN3R4bm5hINHLkwoW33x64Xg0gEskCNDl5yJARI4iamo4fP3iQqLvb7dapAVaONtXVNTU1NRFlZnIL/qOPvvHGG28EjhIdPHj8+PHj+t0i0NLS3t7eTvT559yhJZ1axcV5eXl5XyxoAOhErtf2+UL796q8vLq6uppo9eqdO3fuVP2qd+3i+NxzqjOB00XxksAIvqyJODyamvgDF8BI5Myp7GQtWcLTsHV7oD0X6RRYv547FiTqymTigtPw4XPmXH89kc3mcg1mxgGAkVgsdrvTSTR8+Ny5119PtHv38uWPP07k83m9Os3CXrVq+/bt2wPRqORow733PvTQQw8RXX/9RRdddBHRrbcuWrRoEZHVyu9HADoI11R+ObqjB3QA6Aq3AGitvl51Bs3NPMQHjEmPa2DCR87s//jHDz/88MNETz65fPny5cZb+BtVfv6kSQsWBFr/AaKR05mQkJpKVFg4Y8bll6vOJvJJ59SLL3744YcfEn3/+1wQaGjgYYQAOgjX89hAZxeFBv4G6goFAK2p7wBobkYHgJFFSwGgqoqnT3/ve3/729/+pm9rfKRKSSkoGDWKKDOztHTKFNXZAOghNbWwcPTowLWXEB4HDvDtLfJ5cOwYt0QDqCSdiaHW0KDT0UYMAdQVCgBaQwEABifSCwBVVQ0NDQ1EP/zhv/71r38FrueD8LDbY2Li44mKirDTCXA2+fmTJy9cSOR0JiZilk741NQ0NjY2Ev3oR/z5gEIAqBSu57H6ep06X6qqVGcAZ4YCgNZOnlSdAY4AGFukFgBkeN999/GDnTzoQXjJ9HOLxW53OFRnA6Ans9lisVqJhg49//zFi4lwG0Z4BT4v/u///u//8HkBaoTreUyvoy/hvF8J+gMFAK2dOKE6AwwBNLZIKwB4PDxF91e/evLJJ58MdABAeKWmDh06dixRUlJe3vDhqrMBMIa4uPT0vDyirKyRI6dOVZ1N9JGF0f33P/roo48GrhsECKVwP4fpVQBQv46BM0MBQGvqK2fyRhJpC8loEfh9i4zfv0cfff31118n2rv36NGjR1VnE72czri45OTAvecAcG7y98VqdThiYlRnE73kKMA//rFs2bJlqrOBSBfu5+fGRp06dysrVWcAZ4ZrALUmBQB56wh/02Bnp9vtdhM1NfEbSnJyfHx8vOqfC/RXTw+3nBq17XTdOr7+7p131q5du1Z1NlBRsWPHZ58Fokz9T04eMqSkhCg5OT+/tJTI5UpKSk9XnS1AeHV2NjfX1hI1Nh47tn8/UWNjefm+fUTt7Q0N6g/2gfj00y1btmwhmjy5tLS0lGjevMmTJ09WnRVEmnAN/5OjLh6P1+v1qn/VHPGOpysUALQmNwfL2JqsLFWZVFbW1dXVoQBgVFKBNpmMdfZUWjQfemjp0qVL0Ymiq/b2+vqTJwPxxIlt2z79lK9DS0nhwkBpKRcGSkqI4uLS0nJziXAWGoyJ34fkz3tDw7Fj+/bxgn/fPqKurpYW9Zf4Ql89/PBrr732GtGkSVwISEqKi4uLU50VRIpwFQAqK/k2JD3IukV9KQLODAUAQzh0iKPKAgC/sYweXVRUVKT65wH9Jx9AFovFojqXvnvmmXffffdd3c60QV91dbW0NDQQnTy5e/eaNYFotTocLhdRQkJWVmEhUUJCdnZREX9dVBQoHACo5Ha3tjY2EjU3nzx55AhRS4vEqqojR4i6u93uzk7VWcJgtbV1dnZ2Ej3++Jtvvvkm0b333nLLLbeozgoiRU9PeAoAJ0/qVADA2X/doQBgCHKj+QUXqMpAOgDAmPx+3rEyG2Tqh/x5W7589erVq1VnA8EmC6eGhvLyvXsDUdjtsbGJiUSJiYHCwKmFApvN5cIOHQyW/DlsaamqOnqUF/iHDwcW/FIAgOjw8cebN2/eTHTNNbNnz55NNHRobi53KgEMnM8XjQWAAwdUZwBfDgUAQ5AOAHX0ai2C/jJa6/xzz61YsWJF+D44QS8eDw9Lq60tK9u2LRCFdAjExqam5uQQxcampXGUr1NSsrKIzGar1WZT/WpAF62tNTXHjhGdPLlz5+rVvNA/fDh8O3SgN/mclM6zBx74+te//nXVWYHR9fT4fD5f6H8dvTbq9u9XnQF8ORQADEGHAoBObyzQX+E6gzZYcj/zp59u3bp1q+psQFdytEBiff2RI7t2Bf53k8lkMpsDQwi/WCjgAoHTmZCQmkpksdjtDofqVwXB1tPT0+P3E5WXr1//7rtENTUHDmzZojor0N2GDXv37t1LdPToyZMnTxIVFmZnZ2erzgqMKlwbMHpt1KEDQHcoABjCqc2xatTUNDU1NRF5vXwPu81mtVrxp8cwjNIB8NZbn3/++ef6FixkiGJq6tChY8cSpaUNGzZhApHLlZiYmvrFluKamv37N28OTAWH8JCFX0dHY2N1dSDW1paVnamwJEcKXK7ExLS0QGEg8HUgpqYSORx8RAH0Vla2cuUrrwSG80FoScEtJ2fs2JkzA0M/bbaYmLg4oq6u5ua6OqLq6r17N27kmSDr1nEHRjh2SPtKPi/feGPVqlWriP7rv2644YYbVGcFRuP3885/qJ+95LauqqqGhoYG1a9a4B1Xd1jCGYIUALq7OYZ/6S0fiCdO1NbW1hIVFaEibiS6LqhFdzd/UL7//oYNGzaozuaLZIFYXDx79nXXEcXHZ2QMGXL2f08ehDMzS0omTyZqbDx+fP9+fuBdu5aora22FiNy9OH1dna2tQWiFHDOxmTiYZp2u9MZF8cLnPh4IrudY+Brl0u+jos79Wv+c2I222x2O5HFYrM5HERWK0fdbkfo7vZ4urqIfD6v1+0m8vu9Xo+HH3C7u4lMJrOZOy64UGIymc0qh43K3zMs/EMrLi4jIy+PKD9/0qT584nS00eMOO+8QAdOb1I4S0zMyRk2jCg7e+zYCy4g2r377bcffzzQ0aOLTz7hawK/+c0rr7zySiKXy+FApxD0Vbieuw4f5k4VPTZ6JIODB1VnAl8OBQBD6OriKMMAS0tVZXLgwPHjx4+jAGA0uhcAtmzZv3//fqKWlvb29nbV2QTY7bGxCQlEpaULFtx++0Cm0/NCLjk5P1+uwSst5bPIx48TVVXJQuXECW6Y0+EDHM5FznS63TyrQGKwyOwCi8VqtdsDhQKr1W53OrlgYLcT8VJ7YK+gpyewoPf5PB6O3d0ez6kL/e7u/lziZDZbLFYrUXx8VlZBAVFWVmnp1KlEiYm5ucXFof09IQoUKiord+xYtSr0v140MZmIUlIKC0eOJBoyZNKkiy7i6z1LSgb+PaWQet55N9zwve8Rbd/+yisPPcQdOzU1ql8xkdvt8Xg8RGvX7tq1axfRRRdNmjRpkuqswCh8vvCc/T9yhAsAejh+nGNHh+pM4MuhAGAoO3dyVFkAOHHixAmiRYumTp06VfXPA/pO7wLAZ59t23bqkDfVZCEzfPicOTfcEPxr6eTBV6LcGy4tsfX1hw/v2BHYYYXoIgvvwAK8q6u9ncjtVp3ZufLmP6/NzRUVhw4FohS+iopmzLj88sA1kMFWX3/48M6dgQIGDIy8/2VkjBgxcSIv+OfNC8zQCDaHIy4uKYlozJjFi7/5TaLNm1988cEHA4Up1T77jGfSoAAA/SFHAELt0KHKyspK1a9WbN+uOgPoGxQADEUKANdfryoD6QAAY5FdZekEMJu5ZVc1aVnbvHnfPp1adfPyzjtv7lweHheOThc5c15UNGPGZZcRDRkyceJFF506Bf/gwS1b9GuRBegLacX3eNrampuJSksXLrztNh6+6HQG79eRa/ygf2QBnpMzbtzMmUTZ2WPGnH9+4EhLuMTEpKRkZhINH85Hrfbt++CD555T/dMh2r69rKysDDOQoH/CdwRApwLA5s2qM4C+wVuYoWzapDqD6mqe0t7U1NbW1kaUlBQXh/u4jUOPM2IBZWUVFRUVgT9PqslCPDOTW5dVkR3S7OzRo88/n2jo0AsuWLyYqKGhvHzPHqKKim3bPvuMqKFBzjjr9fsKcCbt7Q0NJ08SHTmybt3y5UTFxbNmXXtt8L6/280FBvhySUl5ecXFRLm548fPns3DTMeNC8xyUC0zc9SoadOIKir4KEdra3X1sWPq8unq4qMAe/YcOXLkCNH48cOHDx+u+qcEupLnLL8/tJ/LbW2dnZ2dug3/QwHAKFAAMJT16znKW4q6MVEHD/JRgClTSkvVHUiA/pKKtMXCQ8xUkwcqXeTmTpgwe7Y+D8IWC+80ST6pqUVFY8YEYldXa2tjI0/V3rCBqKpqz57164k6O5uacOsA6Kqh4ejRPXuIWlpGjJg0iSghISursHDw3xdHZk4nM0yyskaOnDaNKCtr9Ojp04liYpKTMzJUZ3d2ctuKdETt2PH66//3f6qzItqz5+jRo0dRAIAv5/Nxp0ioyZ9HvTZ2UAAwChQADEVqfLJkGjpUVSYyCwAFAGPp6dFrFsD+/ceOqdzZEVar0xkTQ5SSwmeVdWEy8TC4s3E64+OTk4kKCqZOXbSI48KFRM3NlZVHjgQKArW1Bw9u3Rq4phBABzU1+/dv2hS8AoAseGWmRrSQWxdSU4cOHTOGO4emTydKSSkoGDVKn4JmfyUnFxSMHBnozFL9+7p/f3l5ebnqnwroLlzD//bs0enPo9xrpM84QvhyKAAYklyUprIAgFkARqTbbQBHjuhxdk121FVfX9abDOPqD5OJr9kaOjQQhw+fM+e663imwPbt3DGwfj0fIdi/nwhHCECF5uaTJ/vTASQ7w3INo9lsNlutfGuC1UqUlMS3DbS09O/7GonJxAWTggKijIySkokTOU6eHP4z+6F/rfz7nZU1atTUqURHj65b9+676vLRa9o66Cp8BQDuANADdv6NBgUAQ1q7luNNN6nKQM5ud3a63W437sc1inBNpT0XaVmrrKyrq6tTnQ1RYmJ2trpy2tkFqyAh18plZpaWTp4ciG53W1tTExcENm4kqqk5cGDzZqK2ttraigrVrx4inc/H1/b5fF5vVxd3tKSm8gLfbA78+ZcFf+DrM3+/zMyRI6dMITp2bNOmDz/kf2bkwlZcXHp6Xt6pC32eyi874tEiOTk/v6REfQGgtrapqamJyOPxer1eIrvdZvuyDi2ITqEuALS389n/8vLq6upq1a9WyMYkGAUKAIa0cqXqDGQa7s6dhw8fPkw0derIkSNHqs4KzsXn06MDoKGhpaWlJfAgpYrsMMXHZ2Tk56v+qXyR2RzaWQ0y/Ts/f8qUBQsCUWYInHoLwbZt6odxQWSy2Xjn2maLiYmNHfj3kVs7MjNLSydNIqqu3rdP/ejcc5OFflpacfG4cbzQnzRJ/7P64RIfn5lZWMgzUex2PmPt8YQ/DylcnzxZX19fT1RQkJWVlaX6pwO6CNfO/+7dOp79//RT1RlA/6AAYEhyHaDMBAjmDeX9s2XLwYMHD6IAYDTSCRDqBebZ6DL1326PjU1M5OvIdOtg4V1ONWd3Xa6kpPR0ovz8yZO5MMBRriGU+9br648c2bWLqKnpxImyMgxhg/7iApzcehEsw4bNmnXNNXwU4OhRos7O5maVnUbSgZOUlJc3fPipwzz5zL7M8oAzk88plys5OT1dfYeSfH4VFKj+yYBOurvDM/xv8+YDBw4cUP1qRUcHRyOUWuFUKAAYkuzhrl7NcfFiVZls3rx///79gUqk7KiC3qQTQFUBoLm5vb29XfVPITA0TD/8t0i3v0tOZ0JCSkrgtgSJPp/X6/EE7nuvrz9yZPduvrZw714it5tvKwA4VWxsSkpWFpHVarc7ncH7vnIWfty4a675j/8g2rnzjTcefpioo6OhIZQtsw4HL+RTUrhlXRb6MszOYrHZ7PbQ/1wjldMZH5+Sor4A0NysRwEb9OLzhbajUZ6zt27ljTc9rFrFUUVPDgwGCgCG9sknHNUVAGQhd/gwD3MbNiw3NzdX9c8FziUwC0DNGUa3m2dHqGa3u1w6Ds0ymUwmI03tloWN3CcuUXR0NDbW1BA1NR0/vn8/FwoOHODOgQMHiLzeri7ZR4DokZFRUjJpUui+v8uVmJiWRjRp0s03/8//EB09unbtO+8QVVbu3Pn554HCVV/ZbC5XXFxgJ1/OpicnDxkyYkSgcwZCw27nI0uqdXV5PFjugJCFeaiPWMrsLV06KJn6I8kwMCgAGNr776vOQMhRABQAjEH1bQC6zCLQVaT10chZZok5OePGXXhh4MGpvb2urrKSry88dIjj4cNEzc0VFYcOBYYVQmSw2ZzO2Fj+czBzZuh/PYvFZnM4+GjA1VcT5efztZnSsdLaWl1dXk7U3c2FKIuFOxJkQZ+YmJMzbBif1c/J4e8ZWX9DoT/CddYbjCFcrf+bNnHHrV5w9t+oUAAwtN27OcpYLnVjzORM0vXXz5kzZ47qnwuci+oHGL9fj+E1eg3ROT0z1RmEgxwZiotLT8/NDcTc3PHjZ80K/HtdXXyEQK53k2GEra01NceOEbW11dScOEHU3e12d3aqflXwZUwmohEj5s+/+eZAISDcbDanMyYmMFVfIuiup0eHwnF0vDtDX/l84SkAbNmi09n/lhaOOPtvVCgARIQVKzh+4xuqMpD73Ovrm5ubm4lSUxMTExNV/1zgbGThq2p2g9Npt+twFtbvVzNN+lz490Z1FvqQIWkSz7Rg6+nhowa1tXxG+MSJQGdBe3t9/cmTga87O1ta6uv5v8LPOfTkSMuIEfPm3XgjUXp6cfH48aqzAqPp75GNUNHl8wv0EOoOgIqK2traWt2u/ZMLOVXe4wSDgQJARJC/iOoKAPIQ/dlnO3bs2EF09dUXXnjhhap/LnAu0glgtVqt1jC+G8TEOBw6TN2XnWX9YFnaXybTF48aEJ15Z1cWEh0djY3V1YFrDzs7m5rq6nhqPH/NBYWuLp4i73Z3dPC+BwoHfSEdHSNGXHTRTTcRJSRkZxcWqs4KjEr+XqrmcqEAAIGd/1B3EspztV7eekt1BjA4KABEBOkAkDFaMTGqMvn0023btm0juuqqmTNnzsStALpTVQBITIyP12H4ntvd1tbYyB/gfr8+w/cCHRr8Nf4OBZcMLYyPz8gYMiQQz6Wnx+/3+fjPTXNz4M9PV1dLS2MjkcfT3t7cTOTxcKHA6+3sbG8n8no7OtraeNhhWxv/721tgSMLPp/H09UV+HOoG5OJr6O0Wh2OmJjAtX3ytd0eGxsfTxQbm5qak0OUmlpYOGoUUWJibu6wYaqzh0ghBTrVdPn8ArW83tDu/MtzwOrVu3bt2qX61Qo5PPree6ozgcFBASAiyML/gw84XnmlqkxOnqyvr68nOnDg+PHjx4lKSvLz1U0mgHMJ3AYQXunpSUk6THPu6eFhhHJNndOZkJCaqjoryY2IxzUSEfECDNQymcxmiyVwHaLExEQZDTc4Ph8fSfH5PB63mzsVOLrdXCCQPxf8YDjQmQdyL71Ei8VqtduJTCa+FlSu5Qv87zxED0AFr7eriwtpnZ06TD/X5fMLVJGp/6EtABw4cOLEiRNENTWNjfp0Kn72GUc+RAfGhQJARHntNY7qCgBCOgFQANBbd7eaAoCcoUxMjIuLi1N/r7K0gutUACDi5b/PR2SxoAAQDWQhLpGICDuNEO3a2mprKypUZ0FktXKBLCUlISEhQXU2oIrcYhTq25Q+/1zH1v+331adAQQHHikjyhtvcFQ/JkdalnBfru6kkq2mEFBYmJ2dna36Z0DU0dHQoM9wnVPhukQAiG7t7XoUAPLzMzMzM1GQjXbd3V5vKEffud383Lxq1c6dO3eqfrVCDiS+/rrqTCA48BYWUeSm7A8/VJ2JLPw3bNi7d+9e1dnAuYTrGpvehg7NyQlO8/TgdHQ0NtbUqM7ii+TMOQBAtGprq6vToQCgS8Ea1PJ6Q1sAkKF/HR1dXV1dql+tWLeO4+HDqjOB4EABICI995zqDMTHH2/dunWr6izgXFQdBdCpAKBjB4Df7/OhAwAAopkuRwB0+bwCNWTnP9RT/z/8cPPmzZtVv9re9FlXQHCgABCRpEWntVV1Jnv2HD169CjR4cOVlZWVqrOBs1HVAVBUpMcDlUxv7+7maey66Onx+1X8vgAAqCZDWjs6GhqqqlRnQzR0aG5ubq7qLECVUO/879t37NixY0RHjpw8efKk6lcbeNUcX3pJdSYQXCgARCS5FUCfszpvvLF69erVqrOAcwn3rQByplKGK6nW2alXJ4AMAQQAiDay8Pf7fT4dCqG6FKwhvPz+8Ez9X7Fi48aNG1W/2t7kuj8dLuCEYEIBIKI99ZTqDMT69TwLoLq6oaGhQXU2cDbhPgpgs1mtVitRXl56enq66lev3zDAnp7AEYBQthwCAOhGl7P/qak89T8piW+tgeji9fJMq1B9Bss1f+vW7d69e7fqV9sbWv8jFQoAEe2TTzgeOKA6E7ku5a231q5du1Z1NnA23d2qjgLo0VrZ0dHUpNswQL773e9HAQAAokl7e12dDkcHdfl8gvCSz9zu7tDeZiUdsnK9oB5kq+7NN1VnAqGBAkBEk7evxx5TnYn45BMeCtjUpPbedzgzaXEL9ZCb3nQZrtTV1dKiY4eKLi2wAADhosvtLMOG6fH5BOHl8/GZfzkCEGzyHLxy5fbt27erfrW9PfEEx85O1ZlAaKAAEBWefJKj+vFmXi8vMN97b8OGDRtUZwNnE+5OgKIiPa5XcrtbW3UsAPT09PToszMAABB6nZ1NTbW1qrPA8L9o5fGEduf/rbfWrFmzhsjjCe1wwf6RJ42HH1adCYQWCgBRob6e47JlqjMRMuxEr3tOQYT7VgBdHrA8no6O1lYiv7+7W58P5NNnAQAARLqeHqLOzuZmHUaPFRbqUaCG8PD5eBaSxGBrbe3o6Ogg+uCDTZs2bVL9ant7912Ohw+rzgRCCwWAqPKXv6jOQLS3d3Z2dhK99tqqVatWqc4GepP7bsMlOTk+Pj6eKCbG6XQ6Vb96Ire7ra2xUXUWp8JtAAAQHdzu1tamJvWFWJPJZDKZiLKyUlNTU1X/VCBcPB632+0O3fdftmzlypUribq6QtthMDD/+IfqDCA8UACIKlu2cFy5UnUmYvnydevWrcPtALqR827h7gTIykpJSUlR/eqJurpaW3UqAPj9OAIAANFBl53/lBSe/m+38201ENnkGuRQHYGsruZp/3ru/JeVcXz/fdWZQHigABCV9OkEkGvnXnzx448//lh1NtCbzGwIl8xMPQoAHk9bW3Oz6ixOpdN0YACA0NFlGGt2dlpaWprqLCBcQn3m/4UXPvroo4/Cf91y3/z5zxzxpBEtUACISm+9xXHfPtWZiDVrdu3atYvo4METJ06cUJ0NCJmCy2PoQv/r6VMA6OhoaVGdRYDfjyMAABAd3O62tqYm1VkQZWfr8XkEoSXXVHu9oTn6eOhQRUVFBdHatfycq5eqKo5PPaU6EwgvFACiklT4fvc71ZkIWVw+9dR77733XvivoYMzk+tvwnU/rS5nLT2e9nadCgBEgSMA+HsBAJFMlwKALp9HEFpud2jO/Mtz7DPPvP/+++/r+tn9pz9xxHV/0QYFgKj23HMcDx5UnYmQDoB16/bs2bNHdTYgQlUZ702XGQBut14dAIFyGApjABDZ3G49ZrCgABDZZGMjVEOPV67cvn37dqK9e8vLy8tVv9re5JDNI4+ozgTUQAEgqklT8f/+r+pMenv22Q8++OADos7O0E5jhb4J160A+hwB0K0DgElHBgBApEIHAISD2x2aa6jb2viWq+ee4+dYPf31rxxbW1VnAmqgAABE9MwzHPW597O2tqmpqYnouec+/PDDD1VnA9LKFupCgDxwyfVLqni9nZ16fiziNgAAiGxutx5DWHUpSENwye1Gobrl6Pnn+bm1ubm9vb1d9avtTUpruO4v2qEAAEQkS7r771edSW8ffLBx48aNRDt2HDp06JDqbMDjCW0BwOm02+12ovj4mJiYGHWvs6dHWgPdbp1OxkleAACRpqeHC5xeb1eXyoWTFKCTkuLi4uJU/1Qg2EK18y9HWD/6aMsWuXRbPzL7S4dDNqASCgBwihde4KjPW5e0Oz/yyFtvvfUWUVdXaK9pgS8nFfNQL0QTE2NjY2NVv1qi7m61D6K99fT4/TgCAACRyOvt7OT3W7VHnRIS+PPHYjGbzXhKjhheLz8/BnuosVyX/PDDb7755pu6DrGuqOCInX9geGuDU8hb1k9/qjqT3uRIgNyjCmrJB16oJCbqsfPi9brdHR2qszidfg8WAACD5/V2dOhw9Co5WY/PHwgOWZCHatr/kiU85f/48ZqamhrVr/Zs7ruPo25PNKAKCgBwBu++y1G/8SXvvbdhw4YNuk5VjR5er3yQhqbSrUvrZWBHSg84AgAAkcrj0WP2SmJifHx8vOosIFhk4R/snfmdOw8fPnyYaMUKfi7V0/btHOXWLwCGAgB8ie9+l2M45r/3jbyBS6sVbglQQ6bR+3w+n9wlEUy6dAB0d+vVAaBnayEAwOB5vR0dbW2qsyBKTkYBIBLI84m0/gdLezvPEPjXv9544403dO/K+8EPOGLrAE6HAgB8iT17OP7rX6oz6e3kyfr6+nqif/zjtddeew0LI1VCNRRQnwJAV5duBQB8jANAJPJ6Ozt1KADoMoMGBqeri6/jC7ZHHuENqPr65mYdbqs4s9df5/j++6ozAT2hAAB98MADHGtrVWfS28aN+/bt20e0fPm6devWqc4m+si1gH5/cFvT9SkAeDyhmBY8cCh0AUBk0uXWleTkhISEBNVZwEBJy3+wn0uWL1+7du1aonXr9uyR7TH9yJbF976nOhPQGwoA0Adyb+i996rO5Gyee+6DDz74ALMBVPF4gttip8sMAJ/P69XriAmW/wAQmXQpuKIDwJhkwe/xBPdoqFzv99xzH3744YeqX+W5/OxnHI8eVZ0J6A0FAOiHZ57hqN9wQLnW5c9/Xrp06VKixsbWVh2GCUULOWMXrKMYujyA+Xwej24FAJQAACAS+Xx6FADi4lwul0t1FtBX8pnY2Rnclv+2Nv5+f/3rsmXLlhF1d4dm5lFw7NrF8e9/V50JGAMKADAA3/wmR53mo7Pm5ra2tjaiP//55Zdffjl0Q+rgzILVCRATo8cDmM/n9erwQCp6ejDKBwAiky5HAFwuh8PhUJ0F9JXHw0P5/P7gPO/Jc+Nf/sIbSnINtZ7kieDuuznqM7Qb9IYCAAyAtBb96leqMzmb/fuPHz9+nOjZZ/loAIRHoBNgcN/H6bTb7XbVrwYdAAAA4aLLEQCXy+l0OlVnAefS3d3d3d0d/COIjz/+zjvvvBO45k9v//wnxzVrVGcCxoICAAzCgw9yXLVKdSZnI8MB336bh7dAaMkRgMFeu+Ny6VIA0GsGQE+P348CAABEIn06APT4/IEzk+eMYE/5f+ON1atXryb66KPNmzdvVv0qz2XfPo4/+pHqTMCYUACAQZDWo698haMOF/ic2ZIlK1asWEG0cuX27du3q84m8nm9gxvCo0sLpm4FACKMAQSAyKTLDABdPn/gzDo7Ozo6OoI3c2jz5gMHDhwgeuGFjz766CPVr+5curs53nknR50uKgYjQQEAgkCapH74Q9WZnI18SDz8MN/fun17WVlZmeqsIpffzx/MA53G63Tq8QDm9/t88nGrByz/ASAy+f3d3TqcYI6JwREAHbndfNY/WLOdZLr/X//KZ/2DfW1gaPz61xw3bFCdCRgbCgAQRP/3fxyXL1edydnIB4fcFnDkyMmTJ0+qzipyud0Dux3AYjGbzWYim81qtVrV5a/LA6nA8h8AIpUu77foANBLd7fX6/UG76z/sWPV1dXVRL/73XPPPfcckdvN319vcijht79VnQlEBhQAIIhkeXL77RzLy1VndDadnbwz/ZvfPPvss88SnTxZX19frzqrSDS4TgDVD2L6dQAE/pahGAAAkcTv9/lULsR0KTwDkx35YF3vJ895v/rVkiVLlgSu+dNbczPHm2/mqH+pAowBBQAIgcZGjlII0G0JFdDS0t7e3k70299yJbiurrlZ3m4heKRy398WO11uA+jp0es6SdwFAACRRnXBVZfPm2gnHYNy1n+w6uv5ue7Xv+aFv1wXrTf5jP/a1zgePKg6I4gsKABACMntAA88oDqTc6mubmhoaCD6+c+ffPLJJwNfQ3D1txNAlwcy1Q+mvZlM6AAAgMji9/O1bqpYLBaLxaL6pxC95DNNFv6DPZPf2srf55e/fOaZZ54hqq1tampqUv0q++rPf+b4yiuqM4HIhAIAhIGcWVq2THUm5yIfEPff/+9///vfRMeP19TU1KjOKnJ4vXzWrq9DfHR5IPP7/X6dCgDoAACASOH38+dBT09Pj8ohbFarHp830Yc/0dxubskf7JA/6SD461+XLVu2zGhHPGXjDNf7QWihAABhIIuVu+7iuHu36ozOpamJW8R++cunn376aaLy8qqqqirVWUUOmeZ7LmazyWQyqc5Wvw4AInQAAEBkUH32X8gMAAgvOSIoGwSDtWbN7t27dxPt3Hn4sNxRpb/qao5y1l+3Jw6INHirgzBqbeV4zTUc9W/Gam7mGQEPPMCFALk2BgZHKvzn+sDXpQNAvxkAqjMAAAiOnh6/X4f3VxQAwsvr5YW/2z2wIcFns3z52rVr16p+dX0lWyHXXsuxokJ1RhAd8FYHChw4wPGWWzjqX+lsb+fWNLk1YN++Y8eOHVOdlfF1dXEnwNmuCTSZ9OgAINJr0a3LzwQAYPD0ONSkS8E50sm1fvL5Hywy3O/QoYoK/ZfRvTtjV69WnRFEFxQAQKF33+V4zz2qM+mrjg7+wPrVr3iozMqV27dv3646KyPjB7+zPQhYLLoUAPR4QNUzGwCAgTtbATjcMAMgtGThH6xr/XqrrOSz/jr8WTq3n/2M4wsvqM4EohMKAKCBxx7j+Je/qM6kr7xenlb8z3++9tprrxE9+eS77777rj4PMkYjDwYShdmsR0tmT49RHioAAIxGj89NdACERnc3Py+FauEvurr4SIHennmG429+ozoTiG4aPFoDiHvv5fjqq6oz6a93312/fv16or/8ZenSpUuJ3O7gDLOJNr2PBOhSANDlARUAAEIDMwCCK7Dw5+v4Qi0hISYmJkb1qz6blSs5fuMbHPFEAWrhrQ40IhcAyRTUFStUZ9Rf69bt2bNnD9FPf/rEE088QVRX19zc3Kw6K+OQhb/cEqDLLQC6Lf9NJjw+AEBkUH39HwRXuBf+Ii8vPT09nchms1qtVtU/BSGHRK++mqP+PQoQHVAAAA3JG+T113PcuFF1Rv0l1wZKIeDQocrKykrVWRmH3A6gzxBAvR5Qe3owCBAAIJj8fr9fp/d5o5HP7a6u8C78hcNht9vtROPHDxs2bJjqn8aePRznz+fY2Kg6I4BToQAAGpNrAy+9lOPevaoz6q+GhpaWlhain/3s3//+978DRwUwK6BvZCcBvgh/fgAgEujyeahLHkYTWPjzGX/VP8Nrr509e/ZsVUXyQ4c4LljAsa5O7U8D4MxQAAADkDfQuXM5SmXVOGRooAwLfPDBF1988UWi1lY1lXKj8Pn02JHBEEAAgMiGDoD+8Xjcbrc7sPDXxbBhOTk5OUSXX37++eefH65f9cQJjrLwR88n6A0FADCQ6mqOF13E0XgdAWLTpv379+8n+sEPHn744YeJ9u4tLy8vV52VfnQpAJhMJpNu06FxBAAAIoHJpMfwPZ8PHQB9IQt+t5sLALq69db58+fPJ7rwwnHjxo0L1a8iO/7S6n/kiOrXDdAXGrzlAvSXFAKk0lpWpjqjgaqv5yMCv/jF008//TTR0qWffvrpp9iJED6fz+fzqc5Cp9sIAAAii9lsNutQYMXn7pnJ0Qi5xk9a/nUnn9v/vfbGmBtjVq82X2u+1nztf/0X/68NDQP7rvIn5LnnOE6dynH/ftWvF6A/tJmTCdB/FRUcZ8/m+P77HEePVp1Zf8mDhxQAdu06cuTIEaJvf/vqq6++mig9PSkpKUl1lip+LrrsyOhVANBnOCIAwODo0gGAAsDpAgt/PqrY14K8/BzLyioqKiqIdu8+evToUaLGxtbW1tbAwjw9PTExMZFozJihQ4cOJSooyMzMzBx83vLZaH3I/kv7L//1r6u7f+z/sf8//oNeOfXfevppjjfcwHHhQo5FRRxdLo7Syv/55xyXLeO4e7eC3xKAoEEBACKAvEFfeCHHd97hOH266swGSo4E/Pd///Of//wn0XXX8VCbxYv5TFu07Ejr0gFgMumxQ3VqRqozAAAIBl3eX/UpOKsln7uy8D/XcET539es2b17926il176+OOPPyaqqmpo6M8+u5zdv+22BQsWLCAaPbqoSJbjfWG6wWQ1Wf1+a4/9J/affO1rV19/3wP3PfDUU2f+t+WC5sceOz0CRIcoWEJA9JBrVuQs1gcfqM5osNxubrV77rkPP/zwQ6L77nvsscceIzpy5OTJkydVZxd6Os0A0KvggsdUAIgM+hQA9Pi8UcXr9Xg8HqLOzvb29vZzL/xlgf/rXy9ZsmQJ0d/+tmzZsmX9X/gLuS75l7985plnniF69dXPPvvss3P/d+Y0y78t/+7sdLxjf9/+/vTpV5vuM91nOtvCHwCIUACAiNTezvGKKzguXao6o2CRhf9PfvL4448/TvTSS5988skngVsGIo0uBQCz2WLR4QE1AB0AABAZdDkC4PFE5ufo2cjivqurq6urKxDPtuiXz+N33lm3bt06ov/5Hx5ivHPn4cOHDwczLy48vPgidxIsX7527dq1X/z3rL+w/sv6r7KymDyL2+IuKLji0vs+u++zjRtV/1wBjABHACCCdXVxvPFGjnJ94M9/rjqzweru5ha9V15ZuXLlSqLVq3fu3LmT6O67Fy9evLj/rXO60qUAoFsHgMmEEgAARIbA+6vMNlHTiu/xGGO43WDJUYeurr6d7T9w4Pjx48eJHnts+fLly4nKy6uqqqrCl++zz37wwQcfEI17f+gfh/6xp2foa0NoCD388NW7f/zAjx+45x4aofonCmA8KABAFJBHiQce4Fhfz/Evf+Go197uQEjLnbTOzZ173nnnnUd0441z586dS5ScHB8fH686y/7TpbNBlxbVUzNSnQEAQDDJbQB+v8+n4n1fjtxFqu5ufn2Bnf4zF1pkWJ8cPVy1avv27dvVHTyTjYDflz//+vOvr1tXa2++v/n+e+5R+9MEMDYUACAKPfQQR2lae/55jgkJqjMbLPlA//jjLVu2bCFas2bXrl27iK644oILLrggMETQ4bDZbDbV2Z5bVxefSVRNvwIASgAAEFlMJjlqpaYAIDMApPBss1mt1gh4Sna7ecHv8Zz581Q6CqW1/5VX+Ox9Z6fb7Xarzj6AF/6TJvFX8rzW0qI6LwAjioC3NoCBWr6c4+TJHN98k2NpqerMgkUW0C+/zLMCPvhg06ZNm4iuv37OnDlziC66iDsFdL1VQHVLppxN1eWMaqBFFgAgslgsVqvdTuTzeTwqF57yuWPUAoAUMmSKf+/hhrJRsG7dnj179gTO2p88WV8v/ZH6sts5yi1Pcv0zAPSHAd/aAILt4EGO55/P8cUXOcq9sJFDWvseffStt956K1AQuOOOhQsXLtRndoDswKieAWA28wOpLrD4B4BIZbHYbA4H//+trerykKMAsbEul9wGbwSywy87/r3t3n306NGjRM89x2fqy8oqKioqVGc9UFlZqjMAMDIUAAD+P3KN4KWXcvzFLzj++MccI2/5JbcK/OIXTz/99NNEU6aUlpaWEn31q5dccsklRGlpiYmJieHPS5ezmBaL1arXUQl0AABAZDKbbTYdCq6qO8/6Snb2u7o6Ozs7vzjMTz7fZYd/69aDB2W7w/iM8DsEoC8UAAC+QD5Cf/pTjmvWcFyyhGNKiuoMQ2Xjxn379u0j2rXryJEjR4juueeqq666imjatJEjR44MXx5utx5n/3XrAFA3hgkAILQsFj0KALrMnjkb2en3eE6/tk8W/MuW8e1Amzbx53lkfmqUl6vOAMDIUAAAOKd33uE4cSLHl1/mOHWq6sxCRYb//PWvS5cuXUp077033njjjUSTJpWUlJSE/tfv6tJjB8Zs1q0DwGxGBwAARCKLxWqVIwAq6TZB8ScAAC9vSURBVNKBJvx+3tkP7PTzzn90LfhFUxPHjRtVZwJgZCgAAPSZVJxnzuQoRwR++EOOeoyJCyZ50PjXv9544403iP7853vuueceosTEuLi4uND9urp0AOh3BCCyH+0AIHqZzXrcTtPRceYz9OEi7/Kywy87/tKZ9+abq1evXk20fXtZWVlZtH0qPPUUR51KNADGgwIAQL/JB4/MBnjrLY7PPstx6FDVGQZbaytPE37zzTVr1qwhuv12HhoYKrrswOjWAWAyYQYAAESmU4cAqtTeHu4CAE/ll+G3Mr1fpvTLgv/QocrKykrVPx1V5H6C3/1OdSYAkQAFAIBBW7uWo1wn+K9/cbzpJtWZBdunn27btm0b0W23LViwYEHoFqS63D+s3wwALP8BIDLJNYCqtbdzq32oSYddfX1DQ0MD0Ucfbd68eTPRihUbNmzYQFRd3dgoo4mjl2wF3HADx5oa1RkBRAIUAACCRj6qb76Zo3QEPPoox5wc1RkOlnQCVFTU1dXVEeXlpaenpwf/1wn/DsyZ6dYBQIQSAABEJl2GAIbq88fv553+gwfLy8vLid5+m3f2V63auXPnTn2Ovumhro7j9ddz/PRT1RkBRBIUAABCZvlyjuPHc/zHPzjeeKPqzAartrapqakp8gsAurSkBuAIAABEJovFbnc6VWcRvBkAHg+39K9cyTv77723fv369UR79hw9evSo6lepq6VLOX7nOxyrqlRnBBCJUAAACDmpZMuRgBde4PjQQxyHDFGdYX/19PBORqi0tYWnBfNcrFaHw+VSnUWA2YwCAABEJqvV4YiJUZ3FwI8AHDtWXV1dTfT+++vWrVtH9P77Gzdu3BjonIMzkakGsuB/5RXVGQFEAxQAAMLujTc4fvABx5/9jOP3v8/Rqv3fy6yslJSUlNB9f9VTmIXVqseOVAAKAAAQmaxWp1OHAsC5Pn8aG1tbW1uJPvuMZ+J88AGf2T90qKKiokJ19rrz+zlKR+RPf8qxtVV1ZgDRRPuFBkDkkj2BH/2I48svc5QhgtOmqc6wt8TE2NjY2NAXAPQ5AqBfASDyLpsEACCy2fTouJIONI+Hb6NZv56n8X/0Ee/ob9q0f//+/UQ+n8/n86nO1ig2buQoO/3r1qnOCCCaoQAAoI0tWzjOmMFRhgnKtTf5+aoz7MrxXOu59q9/jf0s9pbYWyorfe9327vt3/hG92R/ib+kuNh/je8nvp8Mfo9alwKAbh0AuAYQACKVLh0AO3aUlZWVEd144/33338/UVcXhvP1n7T2ywaHDEUO5eFBAOgr7CUBaEc+IJ9/nmNpKcef/ISjqla5+nr3Xu8z3md++9vF//ph6Q9LH3zwqrKfDP3J0BEjLC/EeeI8KSnO38XFxcXdfbfjB/YOe8fatZZ0a4G1wOPp78JVlwKAjh0AqjMAAAgFXWYASAcAFv79IT+pP/yBozy3LFnCEQt/AJ2gAACgPRlH9Nvfchw+nKNcLxjqJkT5/rffzrG2tve/cbXpe6bvmZqarth677333vvoo1ce/fEffvyH88/31Y6IHREbE+NyxqyPWb9ggeP7zv90/ucrr9jW2fPt+dXV1jctv7H85osPBhgCeHY4AgAAkUiXDgDoC/nclqn9o0dz/OEPOeJMP4DOcAQAwHCqqznefTdHuU3gT3/iuHBhcH6dlhaOsvB/993+focbbrjhhhtukALChx8SUSqlfvgh/Zn/ySc9/7zun9fFxbX/quuprqcuusjX4f2l95fXX986s2N8x/ibbqJyqqIqdUMRdesAwC0AABCpbDY9OgDgy3z4IUdp7d+8WXVGANB/eJQEiDiXXMJRbhWYO5fjufaO3W6OL73EUW4nKC9X8zpkSKK6PfhJk26++Qc/ILJYbDaHQ1UWAQ5HXFxiIhcmdMgHACCYenqIVq78+9+/+12inh6/X2bGgyoym+i++zi+/77qjABg8NABABBxZKdeYkEBx8mTOQ4ZwlFa+MrKOK5ezbGpSW3+CQkc1S38TSaetq/Lwv/0zFTnAAAQGiZTYBaA19vZ2damOqNos3Mnx1/9iuOyZRxxhh8gkqAAABDxZAdf1U5+f6Wnq87AYnE4dGr9F7gFAAAinc3GswBQAAgH2eH/xS84vvUWRyz4ASIZxkkBgGYyMlRnYLM5nbGxqrM4E+5MAACIVDabyxUfrzqLSLVmDccrruAonYFvvskRC3+AaIAOAADQTGam6gxsNpcrLk51Fl+EDgAAiHR2e0wMCgCDJdMT3nmH4+9/z1GO+gFANEMBAAA0gw6As0EBAAAind0eG4sCQH/JEN+XX+b4u99x3LtXdWYAoB8UAABAMygAnB2W/wAQ2Ww2dACcW2Ulx8ce4/jPf3KsrVWdGQDoDwUAANCM+iGAVqteBYBTd/5RAgCASGa3x8TIXTAgpHX/b3/j+NprHLu7VWcGAMaDAgAAaEaPGQAxMaqzOBVa/wEgOkT3DADZwX/2WY6PPMJx/37VmQFA5EABAAA0k5urOgObzenUaQigyYTp/wAQHaKjACBD+j7+mOOjj3J84w2OHo/qDAEgcqEAAACayc5WnYFuMwBMJrMZBQAAiAaROQNAhvEtWcLx6ac5yll+AIDwQQEAADSTk6M6A5vN5dKrAIAjAAAQHYw9A6CiguMrr3BcupTj55+rzgwAQKAAAACaSE7m6HKpzkS3IYBEZrPFojoHAIDQs1hsNrs9EH0+r1e/hnjZuV++nOPzz3P87DOO0uIPAKAfFAAAQBPqd/4tFrvd4eDltlWjd0d0AABAtJFOgM7O5ua6OtXZfOMbHN97j+OJE6ozAgAYKJwqBQBN5OWpzkDX1lMUAAAg2jgccXFJSaqzEB0dHLHwBwDjQwEAADShvgPAbo+N1bEAwGMAVecAABA+Dkd8vD4FgCFDVGcAABAseKQEAE3oUADQtQMAtwAAQHRxOOLiZDKMeigAAEDkwCMlAGgCRwDOBgUAAIg2enUA5OerzgAAIFjwSAkAmigsVJ2BrkcATCb+PwCAaKHXDAAUAAAgcqAAAACaKCpSnYGuBQAidAAAQHRxOOLj9TkCgAIAAEQOPFICgGKyt63+Acvh0O0IAE//xy0AABBt9OoAkFKEXp8QAAADgQIAACiWlcXR5VKdic2mVweAyYTp/wAQnez2mJi4OCKz2WKxWlVnIzAMEACMD4+WAKCY+rP/Vqvd7nQSWSxWq92uOpsAk8lsxs4/AEQrk0m3TgD1nWoAAIOFAgAAKIaz/2djMhGhAwAAohluAwAACC48WgKAYuo7AHD9HwCAnvTqAMARAAAwPjxaAoBiBQWqM9C1A4BLAKpzAABQR6/bAFAAAADjw6MlACim/giAwxEXp88DZoDJZLGgAAAA0czpTEhITVWdhcARAAAwPjxaAoBi6o8A6HXGNAC3AABAtHO5kpLS0lRnIdQXrAEABguPlgCgiCxt1e+o6NsBYDLhFgAAiGZ6dQDIEQCHQ3UmAAADhQIAACiSk8NR/YOUXmdMA0wms9liUZ0FAIA6Tmd8fEqKLu+HUrhGJwAAGBcKAACgiPrWf4vFbnc6iaxWjrrBLQAAEO3kfdDp1KlQW1ysOgMAgIHCoyUAKKK+AKDXA+XpTCZ+8MURAAAAIqczMVGfWQAoAACAcaEAAACKqG+h1Pfsf2DhjwIAAACRy5WYqM8sgGHDVGcAADBQKAAAgCIFBaoz0PnsP1r/AQACnE6dCgDoAAAA48IjJgAoov4ByuGIi8P1fwAA+nO5EhPT01VnIdABAADGhUdMAFCktFR1BrrOANBj2jUAgD706gCQI2w2m+pMAAD6CwUAAAizxESOmZmqM9G3AwBHAAAATuVy6TQE0GrlmJ+vOhMAgP7CIyYAhJn6nX9psbfbY2OlHKETTP8HADid1epwuFxENpvTGROjOhuh/igbAEB/oQAAAGE2YoTqDGTnX9eddpPJZMIRAACAL3K5kpIyMlRnIVAAAADj0fDRFwAim/oOAL3Okn6RroUJAADVYmKSk/UpAGAYIAAYDx4xASDM1HcAOJ0JCToXAIgwBBAA4ExiYlJS1E+QEeo/zwAA+gsFAAAIM/UdAHoNkzqdyYQZAAAAZ+NyJSfrUwAYOVJ1BgAA/YUCAACEiTS1qz8zqesRAJPJZOICAP8fAACcTq8jAIWFkpXqTAAA+goFAAAIE3lQcjpVZ+JyJSTo2AGAs/8AAF9OhgDq8X4pGQwfrjoTAIC+Uv7WCQDRoqREdQZyjZTVqtM1UgEmk8WCs/8AAGdnNvP7pF6zXHAUAACMAwUAAAgT9Wf/nU59z/4T8Y4WCgAAAOcWE4NZAAAAA4ECAACEifoOAJdLpx2jLzKZTCb1La0AAPrT6zYAFAAAwDjwqAkAYaK+AKBXy+gXmUwWCwoAAADnptcwwFGjVGcAANBXeNQEgDDRoQCg9xEAsxlHAAAA+kKvIwAyBNBqVZ0JAMC5oAAAACGWmMgxO1t1Ji6Xntf/CQwBBADoG72OANjtHIcNU50JAMC5oAAAACE2ZozqDOS6KIcjLi45WXU2Z8uRZwCYTKozAQDQn83mcsXFEdlsTmdsrOpshPphtwAA54ICAACE2NixqjNwOuPjU1J0uTf6i07NCwUAAIC+06sTAMMAAUB/Gj4KA0BkUd8B4HIlJekzLOqLzGYM/wMAGIjY2NRU9QfMxOjRqjMAADgXPHICQIiNG6c6A72mRX+RyWQy4ew/AED/xcampeXkqM5CqO94AwA4FxQAACDE1O+IuFy6FwDQAQAAMBB6FQDkCIAMBQQA0A8eOQEgRPLyOKakqM4kJkbvIwDoAAAAGJi4uLS03Fz+/9XPUJGF/4gRqjMBADgbFAAAIETUt0KazVarzcbT/5OSVGdzdroOJwQA0J3V6nC4XPw+L5fOqqf+6BsAwNngkRMAQkSP4X/p6US8x646m7Mzmy0WdAAAAAycXkcB1BfAAQDOBgUAAAgR9Q9AMTFJSfpcD/Vl0AEAADAYcXEoAAAA9AUeOQEgRNQ/AOk//M9kMpsDEQAABkavDgAcAQAAfeGREwCCzGrlWFqqOhP9r//Dzj8AQDDExqam6lMAGDKEo/ohuAAAvVlVJwAAkWb4cI5Op+pMAjMA9GQy4ex/KDU2Hj9+4ABRdfW+fRs3EjU18dceT3t7SwuRzIZwOGJjExOJkpPz80tKiDIzR42aNo0oMTE7u6hI9auIPq2tNTXHjxNVVe3evW4dUWPjsWP79hF1dbW2NjYS9fT4/X4//74lJBAlJubmDhtGlJFRUjJ5MlFqalGR+stHIdxiYlJSsrICM1X8fp/P51OdlczC+ewz1ZkAAAgUAAAgyNQP/7PZnM7Y2EDUlclkNqMAEDyysN+37/33lywhamgoL9+379z/XWdnc3NdHVFn586ddXVElZU7d65eTZSWVlw8fjxRScn8+bfcwn+eYmJUv8rI4/N5PG430YEDH3/84otcsNm8mf+3np6z/3dSEOjq2rdv0yb+7zZtChQERo5ctOiOO4iczoQE7MNGPln4u1x87Wt7e339yZOqs5KjcCgAAIA+0HwKAEGmfu9N97P/wmy2WHAEYPA6O5uaamuJNm9+4YUHH+z7wv9c6urKyrZvJ9qy5cUX//hHIre7ra2pSfWrjRxeb1dXezvR1q0vv/yXvwQW8ERfvvA/l+bmiopDhwK/b21tdXUVFapfLYSLXrMA1B+FAwDoDY+eABBkJSWqM9D97L9AB8Dg+Hxer9tNtHPnm28+8kjoFuhSYNi16623HntMl9Zi4+rp6enp6SHavXv58ieeCN0C3ePp6GhtJdq16803H300UHCAyKbXLAAUAABAPygAAECQqX/gkRZQ3ZlMZrMVB7EG7PjxTZs++oioo6Ohobo69L9ea2t19bFjRJWVO3asWqX61RtXdfXevRs28EyGgwdD/+t1dbW0NDQQlZevW/fuu6pfPYSaXtcBqv88BADoDQUAAAgSaWYfMUJ1JroP/xO4BWBgZAf+xIlt2z79NPy//vHjmzd/9BH//4NpVY9Wp/78wklmO3R3u92dnap/ChAqMTEpKZmZqrMQubkc4+JUZwIAIPDoCQBBkpXFUf2YNJcrISE1VXUWZ2cy8fR5idA/zc0VFQcPqlvIyVGD1tbq6uPHVf80jEOGLaoazub3+3zd3TwjYu9e1T8NCBWnMzExNZVnrKjvsJJ3+MJC1ZkAAAgUAAAgSKQAoI7N5nLFxRFZLHa7+ksIzw5n/wenvT08Lf99yaOqSnUWxhGuoxp9yQO/b5HLZDKZzGbdOsHUfz4CAAgUAAAgSNQ3XTqd8fHJyaqzODcUAAbH6+XhbqrpkodReL2dnW1tqrPg4YA65AGh5XIlJqalqc5CqP98BAAQKAAAQJBkZ6vOwGaLiYmPV51FX5jNaP0fHB3O3vf09PT4/aqzMA59fl665AGhZLfHxiYkqM5CoAMAAPSBAgAABIn6U/c2m9MZG6s6i3OTFlUAAAgNvQoA+vQiAADgERQAgsTlUp2BkQoA6AAAAAgdmQmjB52n0gBAtEEBAACCxOFQnYHJpMPU577mqjoDAIDIZTZbrTab6iyEPpkAAKAAAABBYrerzkCPa5/OzWTCDAAAgFAym3Uatqq+QA4AIFAAAIAgUb/DgbP1AABApNttK+o/HwEABB6VASBIurpUZ+D3+3xer+osAABANZ+vu9vjUZ2FUP/5CAAgUAAAgCBpb1edgc/n9erzwPflcAQAACB0fD6Px+1WnYVoa1OdAQCAQAEAAIKktVV1Bj6fx2OUfRYd7rEHAIhU3d0eT2en6ixER4fqDAAABAoAABAk6gsAbnd7e3Oz6izOraenpwcFAACA0HG7W1oaGlRnIdR/PgIACBQAACBIKitVZ+B2t7U1NanOoi9QAAAACKXOzubm+nrVWYiKCtUZAAAIFAAAIEiOHVOdgez46L/D7vf7/apzAACIXB0djY3V1aqzEOo/HwEABAoAABAk5eWqM5Cpz52dTU01NaqzOTv9CxQAAMbU1cWFYI+nvb2lRXU24uhR1RkAAAgUAAAgSGTKcW2t+kxqa3VuuPT70QEAABAKLS1VVfost+UegpMnVWcCACBQAACAINu+XXUGzc2VlYcOqc7i7Hp6enp8PtVZAABEnoaG8vK9e1VnIXbs4Ih3fADQBwoAABBkmzapzkAKAH5/d7fXqzqbL+rp8fmkAwBHAQAABq+np6fH7yeqrz98eNcu1dmIzZtVZwAA0BsKAAAQZOofeGTh39RUUVFWpjqbM+vpIfL7A4UAAAAYuKamEycOHiTyejs75UCaeuo/DwEAekMBAACCbN061RmImpoDB3R+/Orp0bNDAQDAaCort2///HPVWfS2fr3qDAAAekMBAACC7MQJjuqbMFtaTp48coRvBVA/mvCLfD6fr7tbdRbGYzKZTBaL6iyITCazWYc8jEKXn5cueUBwuN2trY2NRHV1hw/LiXv19PkcBADoDQUAAAiRd99VnYGoqNixY9Uq1Vl8UU8PCgADYbPFxMTFqc6CyG6PiUlIUJ2FcdjtLpcev2+xsfh9ixzl5Rs3vv8+UU+PTreryOcfprwAgH5QAACAENGnANDQcPTo7t36XQ/o88kRgJ4ePCb2XVxcWlpuruosiOLi0tN1yMMoYmPT0nJy+P83mfTIA4yro6OxsaaG6OTJXbvWrlWdTW/6fP4BAPSGAgAAhIjsuVdVqc5EHDu2efMHHxDps+DmPHw+nw+zAPouISEnp6iId+Dj48P/67tcSUnp6USxsamp2dmqfxrG4XDExSUlESUkZGUVFIT/17dYbDaHgyg5OT+/pET1TwMGo6eHqKxs5cpXXuGdf30u2Wtp4bhihepMAADOBgUAAAgRaW5fskR1JqKtrabm+HGiqqq9e3UazeT3ezwoAPSdyWQymc1E+flTpixYEP5fv6Bg2rSLL1b9UzCugoKpUxctCv+vO2TIpEkXXURksVitdrvqnwIMlOz4NzQcPbpnj+psenv5ZY4dHaozAQA4GxQAACDEnnxSdQa9nTixdesnnwRaSFXz+bzeri7VWRhPTs64cbNmESUkZGcXFYX+10tJKSgYOZIoM7O0dMoU1a/euFJThw4dM4YoI2PEiIkTQ//ryZGRIUMmTZo/X/Wrh4Hq7GxurqsjOnTos89ee011Nmfz1FOqMwAAOBfMwQWAEKur4yh7tfn5qjPq6enp8fuJmpsrKw8dIkpLGzp07Fgis9lqtdnU5NPTE2hRNpnMZjPKs+ckP6fU1KKi0aOJGhqOHdu3j8jr7ehobQ3er5OQkJVVWEg0ZswVV3zzm7yDrOLPSaRJSeHft9bWkyePHiXq6mppqa8P3veXoxrjxl111be+xUdGdBhCCP3T3e3xdHUR7djxyisPPUTkdre1NTWpzqq3vXs53nef6kwAAM4FBQAACBO5iO/mm1VnInw+frBsa6urq6wMLCRVLcBNJrPZZOJCAFqU+85isdsdDqKsrNLSqVMDBYD2dv59JerfLG65Ji4vb/z4WbOIRo68+OI77wz8OhAcZjP/nDMzS0snTw6c5W5t5aM6A5nqbjIRZWSUlEyaRDRmzOLF3/gGkcOBqf9GJL//e/YsX/7EE0TNzXytq57+5384btumOhMAgHNROIcXAKKLzP3evJnjeeepzqi3xMScnGHDiIYPnzv3hhuIzGaLxWoN50+ICw8uV2Jiair/E5XT0o2uo6OhoaqKqLp6375Nm4iamk6cKCvjHcTGxsAsAYcjPj4piSg5eciQkhKijAxekLpciYlpaapfRfSRe93l962h4dixvXv5nzc1Efn9fH2m08lDBRMTc3OLiwMLf9zOYGzSobVv34oVS5YE/hzo6dgxjsXFHDHNBQD0h0dLAAizm27i+MILqjM5m6SkvLwRI4iKi2fPvvba8BcCZMfSYnE4nE7VPw0AgNCTDpB9+95//9lndV/4i299i+PDD6vOBACgr1AAAIAwk+Z6ubl56lTVGZ2NDA8bPvyii268kchmczpjY8PxE+KCg9OZmJiSovqnAAAQOj6fx+N2E+3e/c47//63rtP9e5Mz/+PHc8TOPwAYB2YAAECYyWnsnTs5fu1rHPVrdvd4+Cx5YyMPl5P7y202lyuUw8SkBVYKAeHuQAAACDW5hWXHjldf/cc/iFpadD7j39ttt3E8eFB1JgAA/YUCAAAoUlHBsbCQ44QJqjM6GxkWWFd36ND27URmM0/rD/VZ454ePutstTocMTFEOhZJAAD6o6pq794NG4h27XrzzUcfJXK729ubm1Vn1VdyAeFvf6s6EwCAgcLDJAAolp7OcccOjllZqjPqKxkaV1Awbdoll/A1Y/Hxwf917HaeCWC1YiYAABiL19vZ2dZGdPDgp58uW0ZUU7N/v4yCNQ65eFBa/mX4HwCA8aADAAAU6+jgKEcCpLVS/91uube8pubAgc2bA1Pl4+LS0/Py+OtgvAq/v7vb6w0UAIL1fQEAQqW29uDBrVuJdux4/fWHHyZqba2qKi9XndVA3XUXx9WrVWcCADBYKAAAgCYOHeLIF+ARTZumOqO+kvuq5QxrYyNfW+ZwxMYmJhI5nQkJ8qoG/msEZgNYrbiPHgD00tJSVXX0KNGePe+++9RTRMePb9788cdcwPR4VGc3UE8/zfHXv1adCQBAsGAPCQA0I03uK1dy1PeWgL5KTMzNHTaMKC9vwoS5c4liY1NTs7MH/v3s9ri4xEQUAgBAnfb2+vqTJ4mOHl27dvlyotrasrLt21VnFSy7d3OcMYNja6vqjAAAggUFAADQlMwC2LCB45AhqjMKlri4jIwhQ4hycsaMOf98oqSkvLwRI/r+38sRAIeDrwk0m81mC/q5ACCEmpsrKw8dIjp2bOPGDz8kqq8/ckSWyXK3i/HV13OUDjTpTAMAiBwoAACA5uR2gM8/5xgbqzqjYIuNTUnJzibKyCgpmTSJKCWlqGj0aCKLxWq128/+38n1gA5HYmJyMk9NwGwAABgMmTkiZ/grKnbs+Pxzo13T119uN8d58zjirD8ARC48KgKAQSxaxPH11zlG7jx8i8Vms9uJUlOLisaMIUpPLy4+7zyi2Ni0tJycs//7Dkd8fGIi/zMUAgCgL9raamsrKoiqqnbvXruWr+nbuJGou9vtlhGtkau7m+PNN3Nctkx1RgAAoYZHRAAwmOgpBPRmt/NQweTk/PySEqKUlIKCUaOI4uP5SIHV6nTGxPB1hNIngUIAABAFzuzLzn5NzYEDW7cSdXQ0NFRVqc4u3Hw+jnfcwfH551VnBAAQLng0BACDWryYo+zYfFmzfGRzOOLjk5OJkpJyc4uLA0cI0tOHDRs7lshs/vKjBABgfH6/z9fdTdTcXFFRVkbU0HD06N69fFZ/1y6ijo7Gxpoa1VmqJgv/22/n+MILqjMCAAg3FAAAwOAuuojjK69wTEpSnZEuzGar1WYLFAaSkvLyiov5VoLiYqL4+MzMggKeJYAhggB6k+tGW1urq48dCwzla2o6caKsjOOBA0Q+n9dr3Gv3QqW9neNNN3F8+23VGQEAqIICAABEiNGjOS5fzrGgQHVGupMCQUJCVlZBQaAgEB+fmZmfH4guV2JiWprqbAEiW1dXS0tDA1Fra03NsWOBhX5ra1VVeTlRS0tV1dGjWOD3z8mTHKVjbPNm1RkBAKiGAgAARJjsbI6vvspx+nTVGRmd1epwxMQQxcampmZnE8XEpKRkZhLFxCQnZ2Sc/nVmJpHTmZiYmsrXFZrNqrMHCK+enp6enh5e0NfXE3V2cut9ezuftZevOzoaG6ur+Wx+VRWR19vZ2damOvtIsW0bx6uu4lherjojAABdoAAAABHKZuP4+99z/N73OGIsXqjJkQKXKynp1AKB05mQkJJC5HDExSUlBYYaOhxxcYmJp37NUToUAMJJztJ7PO3tLS1EbndbW1MTf93czF83Nwe+lp17WdDLWXu5Tg/C6ZFHOH73uxy7ulRnBACgGzwIA0CUuOIKjk8+yTElRXVG8OVsNrnVgAsCdntMTEICdyQ4nUQWi8PhchFZrXY7R/7nVuvp/9xisdtP/efCZOJChcViszkcgX9usfDQRPnf+0sWfrKQ7KueHv73+9vi3dPj9/t8/N/JbeanktdnMpnN/Xk9UoDpbyHGbLZYrNaBF3DkrHvv1+P388+l98+1u9vj6ewk8vk8Hrebr6/r7Dw1yv8e+OddXYF/7vF0dLS2Bhb82Ik3ktZWjt/8JscXX1SdEQAAAABoJSuLo9we0NODiIiIiGikuHIlx+HDCQAAAACg72Q41IkTHFU/2CIiIiIinh4bGznKTj+OcgEADBTeQAEAiIgoNZWjDIuKjVWdEQBAdJMCwJAhHCsqVGcEAGB0mM8MAEBERPX1HI8eVZ0JAAAQEVVWcsTCHwAgWFAAAAA4zZEjqjMAAAAivB8DAAQfCgAAAKfBAycAgB4OH1adAQBApEEBAADgNCgAAADoAe/HAADBhgIAAMBpdu9WnQEAABAR7dmjOgMAgEiDWwAAAE6TlMSxoYEjrpsCAFCjsJCj3M4CAACDhQ4AAIDTNDVxPHhQdSYAANGppoYjFv4AAMGGAgAAwBmtX686A5GaWlQ0ejSR3R4TEx+vOhsAiARWq8PhchGlphYWjh7N/0yffqcNG1RnAAAQqayqEwAA0NO6dRxvv111JsnJ+fmlpURjx1555d13E7W11dZWVBA1Nh47tn8/UUNDefm+fUTNzZWVhw4R+f3d3V6v6qwBQCWTyWQym4ni47OyCgqIUlIKCkpLiZKTCwpGjiRKSMjMLCggqq7ev3/TJqL6+qNH9ZmAIu+/AAAQbNrUegEA9DJ0KMdDh1Rn4nIlJaWnE02deued99/PD/Zn2qmThb8UApqbKyoOHyZqaamuLi8nam2tqjp6lMjr7erq6FD9qgBgMCwWm83h4AV+fj5RYmJ2dlERUUJCVlZREVFiYm7usGGBnf6z2bz5+ef/8Aei1taamuPHVb8qMWkSxy1bVGcCABBp0AEAAHBGcv/0rl0cx4xRlUlnZ1NTbS1RQ8PRo3v2BI4E9GY2W602W6BjQOLZvl9LS1UVFwa4QCBft7fX1VVUEPl8Xq/Ho+pVA0Qni8VqtduJYmJSU7OyiOLi0tJycnihX1hIlJCQnV1YSBQbm5qanR3Y6e+v5uaTJ48c0W3hL5ls3ao6EwCASIUCAADAl3rzTY7qCgDiyJG1a99+myglpbBw1KizdwKci3QUSMzMLC2dPPn0f6enh6irq6WlsZGoo6OxsbqaqL29vv7kSaL/X3v39tt0+Qdw/LOe151PyMb5NEAEMiCBQDBq+BGNiYc7gqdEE8JfgImJRi9M1Au98RCiksCFJqiIAgkEwmmCCAIDNjYGYTBOZWNl69at7drtd/HxSWEi22Db03XvV2LeaVfw00YM32+/3+fp7AwGb9/WBgLJcmUB8G/mG/jMzLy84uLkn7usrOLiCRP0QH78eH1cVibi8+XmFhU9+p/vgWpoOHLE/N8tdezYoe3ttT0JAKQrbgEAgIdatkz755+2JzFmz/7f/157TaS0dN48M10qMCcAotH29mBQJBJpb797V08kBIP6/N27yUYi+rpotKOjrU2ku7urq6ODNQyQGhwOp9PpFHG7/f7cXBGvNzs7L0/E48nMzMkR8Xj0sc+Xk1NYKOLz5eUVFSUP9H0+rdvt8/n9tt9NUnPzpUtnzojU1Ozc+d13tqfp6/nntXv22J4EANIVJwAA4KHMd3D19dqZM21P5PFkZeXmiixd+tZbH3wg4nR6PF6v7amGjrn1wJwQiMU6O9vbk4+7uyORcFgkHtcTDub1iUQsFonoY1N9vrs7GhWJx6PRrq7kv6enR3/e05NIxOPJ53t79Z9EIhqNRPqf1+Fwuz0eEYfD4XA6B/9+k/doD+4bX5fL4/H59NcN7BLw3t7eXpF4PBa793MYyK8T0c/vUa7w6Pu598fcyuJwOJ2uB1yn6HR6vT5f8tJ3l8vr9fv1U9DH+rmY38f83HzOLpcekLvdD37e7LbhdmdmZmcP/v2mKvPf+YkTW7Z8/LFIV1db2507tqcyAgHt5MlaTgECwHDhFgAAeChzKeq332o//dT2RLFYOBwKiVy8ePDgTz+JzJmzevXrr9ueaug4nXpA7XS63frNam5uYaHtqYDR7fLlysrt21PtwN/4/nstB/4AMNweYdkYABiLNm3SDuQ74ZERCJw//9dfIoFAbS27ZgN4kJaWhoaaGpHr16uqDh+2PU1fPT3a1LsZAQDSFScAAGBAzHdmv/xie5K+Ll7cv3/rVpFwWBfjAwCz9kZd3Z49W7boc6m3tJ651//KFduTAMBYwQkAABiUL77Qps5fpc097mfP/vrr118nF98DMPaYNTPOnNm27csvU313js8/tz0BAIw1j7BcEQCMZbduaRcu1M6da3siwyyC19LS0FBdLTJu3KxZFRXpt0gggH+Lx/XP/9mz27Z99VVy287UVFmpff9925MAwFjDCQAAeCQ1Ndr167XDuWP34JjV8YPBxsa6OpHi4unT58+/d9V4AOnC7I5x7txvv33zjUh7++3bjY22p+rP2rXaa9dsTwIAYw0nAADgkTQ1aWfP1s6fb3uivrq79VLgpqYLF06eFMnPnzSpvFzE683KysuzPR2Ax9HV1dra3Jy81L+jo7n5xg3bU/Vn507tZ5/ZngQAxqqU+cYKAEanKVO01dXa1N053NwKMGfO6tVvvCFSUjJzprmRAcDoEAxeuXL+vEht7e7dmzen+j3+RjSqrajQ1tbanggAxiquAACAx9LWpu3o0L7wgu2J/ktvbyKRSIg0N9fXnzql+4G3tIgUFk6ZMmeOiMPhdLpctqcEcK+enni8u1ukoeHo0V27ROrrDxzYujX5/Ojw0UfabdtsTwIAYx1XAADAkHD8s6uKWdxq+XLbEw1UZmZ+fkmJyOzZq1atXSuSnz9x4syZtqcCxrZQKBC4ckXkwoV9+378USQcvnPn5k3bUw3WuXPaxYu1o+eUBQCkK04AAMCQevJJ7cmT2tG37N64ceXlixaJzJixcuUrr4h4vTk5BQW2pwLSWywWDodCIpcvHzny++8igcD588eP689SZ9PRgYrHtStWaM07AQDYxi0AADCkmpu1gYD2pZdsTzRYZvuwW7eqq48c0e0Fo1GRrKzi4rIyEafT7WZbQeDxxOPRaGenSGPj33/v3Zu8pz8UCgSuXrU93ePasEH788+2JwEA3I8rAABgWG3cqF23zvYkj8vpdLk8HpHS0gULVqwQmTRp0aLnnhPxerOz8/NtTwektlhMd+W4caOq6uBB7eHDIvF4LBaJ2J5uqGzdql2zRjv6rl0AgHTHCQAAGFZut/bAAa25JDYdZGRkZIgUFOj2gmVl8+evWCFSXKy7C2RkZGSYlRGAsaa9vanp2jWRW7fOnTtyRCQQqK09fny0Ld43UHV12qVLtaGQ7YkAAA/GCQAAGBETJmj/+EM7dartiYaLz6drBpSU6FoC48aVl1dUiOTkPPGE2TQRSBcdHc3N16+LNDXV158+ff8uG3fu2J5uuJlbnVau1F66ZHsiAMDDcQIAAEbUjBnaw4e1ZWW2JxopPl9ublGRSFHRtGnz5okUFk6dOneu7jpQXq5rC3g8tqcE7me+sW9tvXHj0iWRYPDq1dpakWCwoaGmRqSz8+7dpibbU460lhbtM89oq6ttTwQAGBhOAACAFWa3gIMHtSUltieyxeFwOl0ukdzc8eOnThXJzS0rmz5dJC+vrGzaNJHc3NLSadNE3G6fLyvL9rRIN/F4NNrVJRIK3brV0CDS1qYNhW7evHw5+Tg9L90fLHNp/6pV2hMnbE8EABgcTgAAgFUVFdrdu7XjxtmeKFWZxQb9/sLC8eNFsrKKisaPv/ex1u8vKiot1RMGfr/tqTHSzAF9Z2cwGAiIhMPa5OOWlnsfRyKhUDBoe+pU19qqNbuaVFbanggA8Gg4AQAAKWHaNO2uXdq5c21PNNq53ZmZ2dl64iAvT8TrzcrKzxdxu/1+83x+vojH4/fn5Ih4PFlZeXkiLpfXm5kp4nLpCQSHw+FwOkUcDr1FweXyeHw+kYwMfd68vj+9vT09iYRIItHdHY32//p4PBqNRER6e3t7e3r++3U9PYlEPP7f31CbKywcDpfLLEn5IBkZuqjjQN+Pw+Fyeb36+zsHsKmwed89PYlEIpHcBq/v/ImEvu94PBbr6hKJRjs6WluTq+jHYh0dbW33Pg6H29pEolFtLBYOswTdUDEbEr74oramxvZEAAAAQBopKNDu368122hRSulItapKO3GiAAAAABhuZjm8zZu1tg8IKKXp3+3btay2AQAAAFj05pvacFhr+0CBUjr6a24a+fBDrcMhAAAAAFLF/Pnas2e1tg8gKKWjr3V12qVLBQAAAECqM8u5vfuu1iwrZ/vAglKaejXLSG7cqOUSfwAAAGAUW7hQe+iQ1vYBB6XUfo8d0y5ZIgAAAADSTcY/27uuWaNtbNTaPhChlA5/b9zQvv22lnv6AQAAgDHE7Cawbp325k2t7QMVSunjNxTSfvKJNidHAAAAAECZe383bNCabwxtH8hQSvtvIKB97z1tfr4AAAAAwMCYKwTMNoNVVVrbBzqUUpGaGu369drMTAEAAACAobV8uXbTJm1Hh9b2ARGl6dhIRPvDD9qnnxYAAAAAsMPcW/zOO9rdu7WxmNb2ARSlo6HxuHbvXq3581RQIAAAjIAM2wMAAEazwkLtyy9rX31V++yz2uxs2xMCIy8c1u7bp921S7tjh9bcyw8AwMjiBAAAYBiYtQXMrQSrV2tXrdJWVGhdLtuTAoNnvsk/eVJbWak1B/yHDmnNpf0AAKQGTgAAACwwuxEsXqw1JwqWLdMuWaKdMMH2pBiLGhu1p07d32PHtEePas03/QAAjA6cAAAApDBzb/RTT2nnzdMuWKCdNUs7dap28mStuQIBY1siob16VXvxora+/v5euKA9fVp7547tyQEAGA6cAAAApBGHQ1taqjUnBiZO1JaUaIuLH1zz87w8rdutNWsZ+Hxasx2b36/1erVmsbfW1sd7H3fvDux15hLzrq6Bvb7v/P0x+8xn9PP3BfP+zefRl5mv7yXx5lL69nZtNKpta9Oaz9E8Nm1u1t6+rb1+XWvurb927f6fd3cP7P0CAJDe/g8/L7+Wm93SUQAAACV0RVh0ZGF0ZTpjcmVhdGUAMjAyMi0wMS0xNVQwNDo1MjozMSswMDowMJUyI8EAAAAldEVYdGRhdGU6bW9kaWZ5ADIwMjItMDEtMTVUMDQ6NTI6MzErMDA6MDDkb5t9AAAAAElFTkSuQmCC;container=0;" parent="1" vertex="1">
          <mxGeometry x="619" y="-764" width="96" height="96" as="geometry" />
        </mxCell>
      </root>
    </mxGraphModel>
  </diagram>
</mxfile>
